<svg width="1375" height="482" viewBox="0 0 1375 482" fill="none" xmlns="http://www.w3.org/2000/svg">
<rect width="1375" height="482" fill="#222222"/>
<path d="M519.382 163.21C521.202 166.64 521.622 170.98 520.642 176.23H520.537C518.087 176.65 515.462 176.93 512.662 177.07C509.862 177.14 507.237 176.825 504.787 176.125C505.207 174.235 504.822 172.66 503.632 171.4C502.442 170.14 501.007 169.335 499.327 168.985C497.647 168.635 496.002 168.81 494.392 169.51C492.852 170.21 491.942 171.54 491.662 173.5C491.522 173.99 491.452 174.48 491.452 174.97C491.522 175.39 491.592 175.845 491.662 176.335C492.222 178.015 493.132 179.135 494.392 179.695C495.652 180.255 497.017 180.64 498.487 180.85C502.197 181.27 505.627 182.46 508.777 184.42C511.997 186.38 514.622 188.865 516.652 191.875C517.912 193.485 518.857 195.235 519.487 197.125C520.117 198.945 520.467 200.835 520.537 202.795C520.677 204.755 520.537 206.75 520.117 208.78C519.767 210.74 519.172 212.63 518.332 214.45C517.492 216.62 516.372 218.475 514.972 220.015C513.572 221.555 511.962 222.815 510.142 223.795C508.392 224.775 506.467 225.51 504.367 226C502.337 226.42 500.237 226.595 498.067 226.525C494.987 226.455 491.907 225.93 488.827 224.95C485.817 223.9 483.122 222.465 480.742 220.645C478.362 218.825 476.472 216.62 475.072 214.03C473.672 211.37 473.077 208.36 473.287 205V204.685V204.37C475.737 204.02 478.432 203.95 481.372 204.16C484.312 204.3 486.972 204.335 489.352 204.265C489.492 206.505 490.367 208.185 491.977 209.305C493.657 210.425 495.407 210.985 497.227 210.985C499.117 210.915 500.727 210.285 502.057 209.095C503.457 207.905 503.947 206.085 503.527 203.635C503.317 201.955 502.687 200.625 501.637 199.645C500.587 198.595 499.327 197.755 497.857 197.125C496.457 196.495 494.917 196.04 493.237 195.76C491.557 195.41 489.982 195.095 488.512 194.815C487.112 194.535 485.817 194.08 484.627 193.45C483.437 192.82 482.352 192.085 481.372 191.245C478.152 188.165 476.052 184.77 475.072 181.06C474.162 177.35 474.127 173.745 474.967 170.245C475.807 166.745 477.382 163.56 479.692 160.69C482.072 157.82 484.942 155.685 488.302 154.285C489.982 153.585 491.837 153.13 493.867 152.92C495.897 152.64 497.927 152.57 499.957 152.71C502.057 152.78 504.087 153.06 506.047 153.55C508.077 154.04 509.932 154.67 511.612 155.44C514.972 157.19 517.562 159.78 519.382 163.21ZM541.994 154.285C543.184 154.355 544.374 154.32 545.564 154.18V168.25C545.564 169.16 545.564 170.105 545.564 171.085C545.634 172.065 545.669 173.08 545.669 174.13C547.839 174.06 550.114 173.955 552.494 173.815C554.944 173.675 557.954 173.5 561.524 173.29C562.014 173.85 562.294 174.69 562.364 175.81C562.434 176.86 562.434 178.015 562.364 179.275C562.294 180.535 562.189 181.83 562.049 183.16C561.979 184.42 562.014 185.505 562.154 186.415H545.879C545.879 190.195 545.879 193.905 545.879 197.545C545.879 201.115 545.914 204.475 545.984 207.625C546.684 208.605 547.699 209.375 549.029 209.935C550.359 210.495 551.794 210.95 553.334 211.3C554.874 211.58 556.414 211.755 557.954 211.825C559.564 211.895 560.964 211.895 562.154 211.825C562.294 212.805 562.434 213.89 562.574 215.08C562.714 216.27 562.819 217.495 562.889 218.755C562.959 220.015 562.924 221.275 562.784 222.535C562.714 223.795 562.504 224.95 562.154 226C559.354 226.14 556.449 226.14 553.439 226C550.429 225.79 547.594 225.37 544.934 224.74C542.274 224.11 539.894 223.165 537.794 221.905C535.764 220.645 534.294 218.93 533.384 216.76C532.474 211.37 531.949 206.295 531.809 201.535C531.669 196.705 531.634 191.735 531.704 186.625C530.584 186.695 529.394 186.73 528.134 186.73C526.944 186.73 525.614 186.73 524.144 186.73L524.459 173.92C525.859 173.99 527.154 174.025 528.344 174.025C529.604 174.025 530.794 174.025 531.914 174.025C531.914 172.485 531.879 170.84 531.809 169.09C531.739 167.27 531.704 165.45 531.704 163.63C531.704 161.81 531.704 160.06 531.704 158.38C531.774 156.7 531.879 155.195 532.019 153.865C532.929 153.725 533.909 153.69 534.959 153.76C536.079 153.83 537.234 153.935 538.424 154.075C539.614 154.145 540.804 154.215 541.994 154.285ZM567.374 181.27C567.794 179.94 568.109 178.89 568.319 178.12C568.809 177.07 569.579 176.16 570.629 175.39C571.749 174.62 573.009 173.99 574.409 173.5C575.879 172.94 577.419 172.555 579.029 172.345C580.709 172.135 582.389 172.03 584.069 172.03C585.469 172.17 586.799 172.205 588.059 172.135C589.389 171.995 590.789 171.995 592.259 172.135C594.499 172.275 596.634 172.73 598.664 173.5C600.694 174.2 602.444 175.25 603.914 176.65C604.894 177.28 605.664 178.295 606.224 179.695C606.784 181.095 607.204 182.74 607.484 184.63C607.764 186.45 607.939 188.48 608.009 190.72C608.079 192.89 608.149 195.13 608.219 197.44C608.149 199.47 608.044 201.78 607.904 204.37C607.834 206.96 607.659 209.445 607.379 211.825C607.169 214.205 606.854 216.34 606.434 218.23C606.084 220.12 605.559 221.415 604.859 222.115C603.669 223.795 602.094 224.985 600.134 225.685C598.244 226.385 596.179 226.805 593.939 226.945C591.699 227.155 589.389 227.155 587.009 226.945C584.629 226.805 582.459 226.735 580.499 226.735C576.929 226.105 573.919 224.565 571.469 222.115C569.579 220.435 568.284 218.335 567.584 215.815C566.884 213.295 566.464 210.67 566.324 207.94C566.184 205.14 566.149 202.34 566.219 199.54C566.359 196.74 566.324 194.185 566.114 191.875C566.114 190.615 566.149 189.39 566.219 188.2C566.289 186.94 566.429 185.645 566.639 184.315C566.709 183.545 566.954 182.53 567.374 181.27ZM585.014 188.2C583.544 188.62 582.354 189.39 581.444 190.51C581.024 190.79 580.709 191.49 580.499 192.61C580.219 194.85 580.079 197.09 580.079 199.33C580.079 201.5 580.009 203.81 579.869 206.26C579.799 207.87 580.219 209.13 581.129 210.04C582.039 210.88 583.124 211.475 584.384 211.825C585.714 212.105 587.079 212.175 588.479 212.035C589.879 211.825 591.034 211.475 591.944 210.985C593.134 210.425 593.939 209.27 594.359 207.52C594.639 205.28 594.849 203.04 594.989 200.8C595.199 198.49 595.094 196.32 594.674 194.29C594.324 191.84 593.309 190.055 591.629 188.935C589.949 187.815 587.744 187.57 585.014 188.2ZM628.72 176.125C628.79 176.335 628.825 176.685 628.825 177.175C629.105 177.035 629.735 176.755 630.715 176.335C631.765 175.915 632.78 175.53 633.76 175.18C635.09 174.76 636.595 174.445 638.275 174.235C639.955 173.955 641.53 173.78 643 173.71C644.47 173.64 645.695 173.64 646.675 173.71C647.725 173.71 648.25 173.745 648.25 173.815C648.25 176.195 648.215 178.295 648.145 180.115C648.145 181.935 648.145 183.58 648.145 185.05C648.145 186.45 648.145 187.745 648.145 188.935C648.145 190.125 648.18 191.245 648.25 192.295L647.305 191.98C646.955 191.84 646.57 191.735 646.15 191.665C645.8 191.525 645.45 191.385 645.1 191.245C644.26 191.035 643.385 190.86 642.475 190.72C641.635 190.58 641.18 190.51 641.11 190.51C639.22 190.3 637.47 190.195 635.86 190.195C634.32 190.195 632.955 190.44 631.765 190.93C630.645 191.42 629.77 192.19 629.14 193.24C628.51 194.29 628.23 195.795 628.3 197.755C628.37 200.205 628.44 202.515 628.51 204.685C628.58 206.855 628.615 209.06 628.615 211.3C628.615 213.47 628.615 215.71 628.615 218.02C628.685 220.26 628.72 222.675 628.72 225.265V225.685C627.53 226.035 626.445 226.245 625.465 226.315C624.485 226.385 623.47 226.385 622.42 226.315C621.37 226.315 620.215 226.28 618.955 226.21C617.765 226.14 616.33 226.175 614.65 226.315C614.65 217.705 614.545 209.095 614.335 200.485C614.195 191.875 614.265 182.95 614.545 173.71C615.385 173.78 616.085 173.85 616.645 173.92C617.205 173.92 617.73 173.92 618.22 173.92C618.71 173.92 619.235 173.92 619.795 173.92C620.355 173.85 621.055 173.78 621.895 173.71C622.175 173.71 622.665 173.675 623.365 173.605C624.135 173.535 624.905 173.465 625.675 173.395C626.515 173.325 627.215 173.325 627.775 173.395C628.405 173.395 628.72 173.465 628.72 173.605C628.72 174.165 628.72 174.585 628.72 174.865C628.72 175.145 628.72 175.39 628.72 175.6C628.72 175.74 628.72 175.915 628.72 176.125ZM657.612 173.71C660.412 173.5 662.932 173.535 665.172 173.815C665.662 176.335 666.222 179.345 666.852 182.845C667.482 186.275 668.147 189.775 668.847 193.345C669.547 196.915 670.282 200.345 671.052 203.635C671.822 206.855 672.592 209.515 673.362 211.615C674.132 209.515 674.762 206.75 675.252 203.32C675.742 199.89 676.197 196.32 676.617 192.61C677.107 188.9 677.632 185.33 678.192 181.9C678.752 178.47 679.452 175.705 680.292 173.605C682.672 173.675 685.087 173.64 687.537 173.5C689.987 173.36 692.682 173.395 695.622 173.605C694.502 177.805 693.487 181.83 692.577 185.68C691.737 189.46 690.897 193.17 690.057 196.81C689.147 200.24 688.307 203.845 687.537 207.625C686.837 211.405 685.927 215.115 684.807 218.755C683.757 222.395 682.392 225.86 680.712 229.15C679.032 232.44 676.792 235.275 673.992 237.655C671.262 240.105 667.832 241.96 663.702 243.22C659.642 244.48 654.637 244.935 648.687 244.585C647.987 242.485 647.637 240.105 647.637 237.445C647.567 234.855 647.707 232.58 648.057 230.62C649.737 230.62 651.452 230.69 653.202 230.83C655.022 230.97 656.632 230.865 658.032 230.515C659.432 230.235 660.482 229.57 661.182 228.52C661.952 227.47 662.162 225.79 661.812 223.48C660.342 215.01 658.487 206.54 656.247 198.07C654.007 189.6 651.802 181.41 649.632 173.5C652.152 173.78 654.812 173.85 657.612 173.71ZM763.852 164.26C765.462 167.06 766.372 170.455 766.582 174.445V174.55C766.582 175.04 766.582 175.53 766.582 176.02C766.582 176.44 766.547 176.86 766.477 177.28C766.057 180.64 764.937 183.72 763.117 186.52C761.367 189.32 759.162 191.7 756.502 193.66C753.842 195.62 750.902 197.055 747.682 197.965C744.462 198.805 741.172 198.945 737.812 198.385C737.882 199.365 737.917 200.345 737.917 201.325C737.917 202.235 737.917 203.6 737.917 205.42C737.917 207.17 737.917 209.55 737.917 212.56C737.987 215.57 738.092 219.63 738.232 224.74V224.845C738.162 224.845 738.092 224.88 738.022 224.95C738.022 224.95 737.987 224.95 737.917 224.95C736.937 225.23 735.677 225.44 734.137 225.58C732.667 225.65 731.092 225.72 729.412 225.79C727.802 225.79 726.192 225.755 724.582 225.685C722.972 225.615 721.572 225.51 720.382 225.37C720.172 220.26 720.067 214.73 720.067 208.78C720.067 202.76 720.067 196.6 720.067 190.3C720.067 184 720.032 177.665 719.962 171.295C719.962 164.925 719.857 158.835 719.647 153.025C722.517 152.255 725.632 151.695 728.992 151.345C732.422 150.995 735.817 150.96 739.177 151.24C742.607 151.52 745.932 152.15 749.152 153.13C752.372 154.04 755.207 155.44 757.657 157.33C760.177 159.15 762.242 161.46 763.852 164.26ZM750.307 172.135C749.817 171.295 749.117 170.595 748.207 170.035C746.457 168.635 744.427 167.76 742.117 167.41C739.807 166.99 737.532 167.06 735.292 167.62C735.152 167.62 735.047 167.655 734.977 167.725C735.047 168.985 735.047 170.315 734.977 171.715C734.977 173.115 734.977 174.515 734.977 175.915C735.047 177.315 735.117 178.68 735.187 180.01C735.327 181.27 735.572 182.425 735.922 183.475H736.237C737.357 183.405 738.547 183.37 739.807 183.37C741.067 183.3 742.292 183.195 743.482 183.055C744.742 182.915 745.932 182.67 747.052 182.32C748.242 181.9 749.257 181.27 750.097 180.43C750.657 179.66 751.042 178.785 751.252 177.805C751.532 176.825 751.567 175.845 751.357 174.865C751.217 173.885 750.867 172.975 750.307 172.135ZM786.015 176.125C786.085 176.335 786.12 176.685 786.12 177.175C786.4 177.035 787.03 176.755 788.01 176.335C789.06 175.915 790.075 175.53 791.055 175.18C792.385 174.76 793.89 174.445 795.57 174.235C797.25 173.955 798.825 173.78 800.295 173.71C801.765 173.64 802.99 173.64 803.97 173.71C805.02 173.71 805.545 173.745 805.545 173.815C805.545 176.195 805.51 178.295 805.44 180.115C805.44 181.935 805.44 183.58 805.44 185.05C805.44 186.45 805.44 187.745 805.44 188.935C805.44 190.125 805.475 191.245 805.545 192.295L804.6 191.98C804.25 191.84 803.865 191.735 803.445 191.665C803.095 191.525 802.745 191.385 802.395 191.245C801.555 191.035 800.68 190.86 799.77 190.72C798.93 190.58 798.475 190.51 798.405 190.51C796.515 190.3 794.765 190.195 793.155 190.195C791.615 190.195 790.25 190.44 789.06 190.93C787.94 191.42 787.065 192.19 786.435 193.24C785.805 194.29 785.525 195.795 785.595 197.755C785.665 200.205 785.735 202.515 785.805 204.685C785.875 206.855 785.91 209.06 785.91 211.3C785.91 213.47 785.91 215.71 785.91 218.02C785.98 220.26 786.015 222.675 786.015 225.265V225.685C784.825 226.035 783.74 226.245 782.76 226.315C781.78 226.385 780.765 226.385 779.715 226.315C778.665 226.315 777.51 226.28 776.25 226.21C775.06 226.14 773.625 226.175 771.945 226.315C771.945 217.705 771.84 209.095 771.63 200.485C771.49 191.875 771.56 182.95 771.84 173.71C772.68 173.78 773.38 173.85 773.94 173.92C774.5 173.92 775.025 173.92 775.515 173.92C776.005 173.92 776.53 173.92 777.09 173.92C777.65 173.85 778.35 173.78 779.19 173.71C779.47 173.71 779.96 173.675 780.66 173.605C781.43 173.535 782.2 173.465 782.97 173.395C783.81 173.325 784.51 173.325 785.07 173.395C785.7 173.395 786.015 173.465 786.015 173.605C786.015 174.165 786.015 174.585 786.015 174.865C786.015 175.145 786.015 175.39 786.015 175.6C786.015 175.74 786.015 175.915 786.015 176.125ZM826.352 199.96C824.812 199.89 823.692 199.785 822.992 199.645V201.535C823.062 203.635 823.132 205.35 823.202 206.68C823.342 208.01 823.797 209.305 824.567 210.565C825.407 212.175 826.597 213.365 828.137 214.135C829.677 214.905 831.182 215.15 832.652 214.87C834.122 214.59 835.347 213.75 836.327 212.35C837.377 210.88 837.832 208.71 837.692 205.84C838.392 205.91 839.337 205.945 840.527 205.945C841.717 205.875 842.942 205.805 844.202 205.735C845.532 205.665 846.792 205.665 847.982 205.735C849.172 205.735 850.152 205.84 850.922 206.05C850.782 207.87 850.642 209.655 850.502 211.405C850.362 213.155 850.187 214.8 849.977 216.34C849.767 217.81 849.487 219.105 849.137 220.225C848.857 221.275 848.472 222.01 847.982 222.43C846.792 224.11 845.252 225.3 843.362 226C841.472 226.7 839.407 227.12 837.167 227.26C834.927 227.4 832.617 227.4 830.237 227.26C827.927 227.12 825.792 227.05 823.832 227.05C821.872 226.77 820.052 226.14 818.372 225.16C816.482 223.83 814.907 222.115 813.647 220.015C812.387 217.845 811.372 215.5 810.602 212.98C809.832 210.39 809.307 207.66 809.027 204.79C808.747 201.92 808.677 199.05 808.817 196.18C809.027 193.59 809.237 191.105 809.447 188.725C809.727 186.275 810.287 183.895 811.127 181.585C812.037 179.555 813.437 177.84 815.327 176.44C817.217 174.97 819.352 173.885 821.732 173.185C824.112 172.415 826.632 171.995 829.292 171.925C831.952 171.855 834.542 172.135 837.062 172.765C840.282 173.325 842.872 174.445 844.832 176.125C846.792 177.805 848.262 179.835 849.242 182.215C850.292 184.595 850.922 187.22 851.132 190.09C851.342 192.96 851.342 195.865 851.132 198.805C850.642 198.945 849.697 199.085 848.297 199.225C846.967 199.365 845.357 199.505 843.467 199.645C841.647 199.785 839.687 199.89 837.587 199.96C835.487 200.03 833.457 200.065 831.497 200.065C829.607 200.065 827.892 200.03 826.352 199.96ZM838.637 186.205C837.937 184.945 836.957 184 835.697 183.37C835.137 183.02 834.577 182.775 834.017 182.635C833.457 182.425 832.792 182.32 832.022 182.32C830.342 182.32 828.977 182.495 827.927 182.845C826.877 183.195 826.037 183.685 825.407 184.315C824.777 184.945 824.287 185.68 823.937 186.52C823.657 187.36 823.447 188.235 823.307 189.145C823.167 189.915 823.097 190.475 823.097 190.825C823.167 191.105 823.517 191.315 824.147 191.455C824.777 191.525 825.757 191.56 827.087 191.56C828.487 191.49 830.517 191.455 833.177 191.455C834.997 191.455 836.362 191.49 837.272 191.56C838.182 191.63 838.812 191.665 839.162 191.665C839.582 191.595 839.792 191.49 839.792 191.35C839.792 191.14 839.792 190.755 839.792 190.195C839.792 188.795 839.407 187.465 838.637 186.205ZM870.907 242.905C870.907 243.675 870.872 244.76 870.802 246.16V247.315C870.802 247.385 870.312 247.455 869.332 247.525C868.422 247.665 867.267 247.735 865.867 247.735C864.537 247.805 863.102 247.805 861.562 247.735C860.022 247.735 858.692 247.63 857.572 247.42V240.49C857.572 234.68 857.502 228.87 857.362 223.06C857.222 217.25 857.082 211.545 856.942 205.945C856.872 200.275 856.802 194.745 856.732 189.355C856.732 183.895 856.802 178.645 856.942 173.605C859.112 173.605 861.492 173.57 864.082 173.5C866.672 173.36 869.017 173.43 871.117 173.71C871.187 173.85 871.222 174.095 871.222 174.445C871.222 175.145 871.222 175.705 871.222 176.125C871.292 176.545 871.327 177.14 871.327 177.91C871.467 178.26 871.607 178.54 871.747 178.75C871.957 178.89 872.167 178.75 872.377 178.33C873.427 176.23 874.827 174.9 876.577 174.34C878.327 173.71 880.182 173.535 882.142 173.815C886.132 174.095 889.282 175.145 891.592 176.965C893.902 178.715 895.617 180.99 896.737 183.79C897.927 186.52 898.697 189.6 899.047 193.03C899.397 196.46 899.642 199.925 899.782 203.425C899.782 205.875 899.607 208.255 899.257 210.565C898.977 212.875 898.487 215.01 897.787 216.97C897.157 218.86 896.282 220.505 895.162 221.905C894.112 223.235 892.817 224.18 891.277 224.74C889.387 225.44 887.287 225.86 884.977 226C882.737 226.21 880.602 226.21 878.572 226C876.542 225.86 874.827 225.545 873.427 225.055C872.027 224.565 871.257 224.005 871.117 223.375C871.187 226.665 871.222 229.325 871.222 231.355C871.222 233.385 871.222 234.995 871.222 236.185C871.222 237.445 871.187 238.39 871.117 239.02C871.117 239.72 871.082 240.35 871.012 240.91C871.012 241.54 870.977 242.205 870.907 242.905ZM883.927 212.14C885.677 210.88 886.727 209.025 887.077 206.575C887.427 205.595 887.637 204.58 887.707 203.53C887.777 202.48 887.812 201.465 887.812 200.485C887.812 198.735 887.602 197.055 887.182 195.445C886.762 193.765 886.132 192.295 885.292 191.035C884.452 189.705 883.437 188.655 882.247 187.885C881.057 187.115 879.727 186.73 878.257 186.73C876.437 186.73 875.037 187.115 874.057 187.885C873.077 188.655 872.307 189.705 871.747 191.035C871.257 192.365 870.942 193.975 870.802 195.865C870.732 197.755 870.697 199.785 870.697 201.955C870.697 204.685 870.732 206.855 870.802 208.465C870.942 210.005 871.222 211.195 871.642 212.035C872.062 212.875 872.692 213.435 873.532 213.715C874.442 213.925 875.632 214.03 877.102 214.03C879.972 214.03 882.247 213.4 883.927 212.14Z" fill="white"/>
<path d="M652 105.459C658.318 105.459 673.017 110.496 673.017 110.496L686.5 90L699.983 110.496L721 105.459L716.162 134H656.838L652 105.459Z" fill="#EAEAEA"/>
<path opacity="0.6" d="M387.493 309.35C385.696 309.35 384.028 309.035 382.488 308.405C380.971 307.752 379.629 306.853 378.463 305.71C377.319 304.567 376.421 303.237 375.768 301.72C375.138 300.18 374.823 298.523 374.823 296.75C374.823 294.953 375.138 293.297 375.768 291.78C376.421 290.24 377.319 288.898 378.463 287.755C379.629 286.612 380.971 285.725 382.488 285.095C384.028 284.465 385.696 284.15 387.493 284.15C388.683 284.15 389.826 284.29 390.923 284.57C392.043 284.827 393.058 285.235 393.968 285.795C394.201 285.912 394.364 286.075 394.458 286.285C394.574 286.495 394.633 286.717 394.633 286.95C394.633 287.347 394.493 287.685 394.213 287.965C393.956 288.245 393.653 288.385 393.303 288.385C393.163 288.385 393.023 288.362 392.883 288.315C392.766 288.268 392.638 288.222 392.498 288.175C391.774 287.802 390.993 287.51 390.153 287.3C389.313 287.067 388.426 286.95 387.493 286.95C385.649 286.95 383.993 287.382 382.523 288.245C381.076 289.108 379.933 290.275 379.093 291.745C378.253 293.215 377.833 294.883 377.833 296.75C377.833 298.593 378.253 300.262 379.093 301.755C379.933 303.225 381.076 304.392 382.523 305.255C383.993 306.118 385.649 306.55 387.493 306.55C388.426 306.55 389.383 306.422 390.363 306.165C391.366 305.908 392.218 305.582 392.918 305.185L392.673 306.025V298.64L393.233 299.13H387.878C387.481 299.13 387.143 299.002 386.863 298.745C386.606 298.465 386.478 298.127 386.478 297.73C386.478 297.333 386.606 297.007 386.863 296.75C387.143 296.47 387.481 296.33 387.878 296.33H394.248C394.668 296.33 395.006 296.47 395.263 296.75C395.519 297.03 395.648 297.368 395.648 297.765V305.85C395.648 306.13 395.578 306.375 395.438 306.585C395.321 306.795 395.158 306.97 394.948 307.11C393.898 307.787 392.731 308.335 391.448 308.755C390.188 309.152 388.869 309.35 387.493 309.35ZM408.538 309.35C406.672 309.35 405.038 308.953 403.638 308.16C402.238 307.367 401.142 306.282 400.348 304.905C399.578 303.505 399.193 301.895 399.193 300.075C399.193 298.045 399.59 296.318 400.383 294.895C401.2 293.448 402.25 292.352 403.533 291.605C404.84 290.835 406.217 290.45 407.663 290.45C408.737 290.45 409.775 290.648 410.778 291.045C411.782 291.442 412.668 292.025 413.438 292.795C414.208 293.542 414.827 294.452 415.293 295.525C415.76 296.575 416.005 297.753 416.028 299.06C416.028 299.433 415.888 299.748 415.608 300.005C415.328 300.262 415.002 300.39 414.628 300.39H400.803L400.173 297.975H413.648L413.088 298.465V297.695C412.995 296.738 412.668 295.922 412.108 295.245C411.572 294.545 410.907 294.008 410.113 293.635C409.343 293.262 408.527 293.075 407.663 293.075C406.963 293.075 406.263 293.203 405.563 293.46C404.887 293.693 404.268 294.09 403.708 294.65C403.172 295.187 402.728 295.887 402.378 296.75C402.052 297.613 401.888 298.652 401.888 299.865C401.888 301.218 402.157 302.408 402.693 303.435C403.253 304.462 404.023 305.278 405.003 305.885C405.983 306.468 407.127 306.76 408.433 306.76C409.25 306.76 409.962 306.655 410.568 306.445C411.175 306.235 411.7 305.978 412.143 305.675C412.587 305.348 412.96 305.022 413.263 304.695C413.567 304.485 413.858 304.38 414.138 304.38C414.488 304.38 414.768 304.497 414.978 304.73C415.212 304.963 415.328 305.243 415.328 305.57C415.328 305.967 415.142 306.317 414.768 306.62C414.115 307.343 413.228 307.985 412.108 308.545C410.988 309.082 409.798 309.35 408.538 309.35ZM429.232 290.45C430.819 290.45 432.067 290.777 432.977 291.43C433.887 292.083 434.529 292.958 434.902 294.055C435.299 295.152 435.497 296.377 435.497 297.73V307.565C435.497 307.962 435.357 308.3 435.077 308.58C434.82 308.86 434.494 309 434.097 309C433.7 309 433.362 308.86 433.082 308.58C432.825 308.3 432.697 307.962 432.697 307.565V297.8C432.697 296.913 432.557 296.12 432.277 295.42C432.02 294.697 431.577 294.125 430.947 293.705C430.34 293.262 429.5 293.04 428.427 293.04C427.447 293.04 426.549 293.262 425.732 293.705C424.915 294.125 424.262 294.697 423.772 295.42C423.282 296.12 423.037 296.913 423.037 297.8V307.565C423.037 307.962 422.897 308.3 422.617 308.58C422.36 308.86 422.034 309 421.637 309C421.24 309 420.902 308.86 420.622 308.58C420.365 308.3 420.237 307.962 420.237 307.565V292.305C420.237 291.908 420.365 291.582 420.622 291.325C420.902 291.045 421.24 290.905 421.637 290.905C422.057 290.905 422.395 291.045 422.652 291.325C422.909 291.582 423.037 291.908 423.037 292.305V294.79L422.337 295.56C422.454 294.953 422.722 294.347 423.142 293.74C423.562 293.11 424.087 292.55 424.717 292.06C425.347 291.57 426.047 291.185 426.817 290.905C427.587 290.602 428.392 290.45 429.232 290.45ZM449.041 309.35C447.175 309.35 445.541 308.953 444.141 308.16C442.741 307.367 441.645 306.282 440.851 304.905C440.081 303.505 439.696 301.895 439.696 300.075C439.696 298.045 440.093 296.318 440.886 294.895C441.703 293.448 442.753 292.352 444.036 291.605C445.343 290.835 446.72 290.45 448.166 290.45C449.24 290.45 450.278 290.648 451.281 291.045C452.285 291.442 453.171 292.025 453.941 292.795C454.711 293.542 455.33 294.452 455.796 295.525C456.263 296.575 456.508 297.753 456.531 299.06C456.531 299.433 456.391 299.748 456.111 300.005C455.831 300.262 455.505 300.39 455.131 300.39H441.306L440.676 297.975H454.151L453.591 298.465V297.695C453.498 296.738 453.171 295.922 452.611 295.245C452.075 294.545 451.41 294.008 450.616 293.635C449.846 293.262 449.03 293.075 448.166 293.075C447.466 293.075 446.766 293.203 446.066 293.46C445.39 293.693 444.771 294.09 444.211 294.65C443.675 295.187 443.231 295.887 442.881 296.75C442.555 297.613 442.391 298.652 442.391 299.865C442.391 301.218 442.66 302.408 443.196 303.435C443.756 304.462 444.526 305.278 445.506 305.885C446.486 306.468 447.63 306.76 448.936 306.76C449.753 306.76 450.465 306.655 451.071 306.445C451.678 306.235 452.203 305.978 452.646 305.675C453.09 305.348 453.463 305.022 453.766 304.695C454.07 304.485 454.361 304.38 454.641 304.38C454.991 304.38 455.271 304.497 455.481 304.73C455.715 304.963 455.831 305.243 455.831 305.57C455.831 305.967 455.645 306.317 455.271 306.62C454.618 307.343 453.731 307.985 452.611 308.545C451.491 309.082 450.301 309.35 449.041 309.35ZM462.14 309C461.743 309 461.405 308.86 461.125 308.58C460.868 308.3 460.74 307.962 460.74 307.565V292.305C460.74 291.908 460.868 291.582 461.125 291.325C461.405 291.045 461.743 290.905 462.14 290.905C462.56 290.905 462.898 291.045 463.155 291.325C463.412 291.582 463.54 291.908 463.54 292.305V296.925L463.12 296.19C463.26 295.467 463.505 294.767 463.855 294.09C464.228 293.39 464.695 292.772 465.255 292.235C465.815 291.675 466.457 291.243 467.18 290.94C467.903 290.613 468.697 290.45 469.56 290.45C470.073 290.45 470.54 290.578 470.96 290.835C471.403 291.068 471.625 291.407 471.625 291.85C471.625 292.34 471.497 292.702 471.24 292.935C470.983 293.168 470.692 293.285 470.365 293.285C470.062 293.285 469.77 293.227 469.49 293.11C469.21 292.97 468.86 292.9 468.44 292.9C467.857 292.9 467.273 293.063 466.69 293.39C466.13 293.693 465.605 294.137 465.115 294.72C464.648 295.303 464.263 295.968 463.96 296.715C463.68 297.438 463.54 298.22 463.54 299.06V307.565C463.54 307.962 463.4 308.3 463.12 308.58C462.863 308.86 462.537 309 462.14 309ZM489.288 290.73C489.684 290.73 490.011 290.87 490.268 291.15C490.548 291.407 490.688 291.733 490.688 292.13V307.565C490.688 307.962 490.548 308.3 490.268 308.58C490.011 308.86 489.684 309 489.288 309C488.868 309 488.529 308.86 488.273 308.58C488.016 308.3 487.888 307.962 487.888 307.565V304.24L488.553 304.17C488.553 304.683 488.378 305.243 488.028 305.85C487.678 306.457 487.199 307.028 486.593 307.565C485.986 308.078 485.263 308.51 484.423 308.86C483.606 309.187 482.719 309.35 481.763 309.35C480.176 309.35 478.753 308.942 477.493 308.125C476.233 307.285 475.229 306.153 474.483 304.73C473.759 303.307 473.398 301.685 473.398 299.865C473.398 298.022 473.759 296.4 474.483 295C475.229 293.577 476.233 292.468 477.493 291.675C478.753 290.858 480.153 290.45 481.693 290.45C482.696 290.45 483.629 290.613 484.493 290.94C485.356 291.267 486.103 291.71 486.733 292.27C487.386 292.83 487.888 293.448 488.238 294.125C488.611 294.802 488.798 295.478 488.798 296.155L487.888 295.945V292.13C487.888 291.733 488.016 291.407 488.273 291.15C488.529 290.87 488.868 290.73 489.288 290.73ZM482.078 306.76C483.244 306.76 484.271 306.457 485.158 305.85C486.068 305.243 486.768 304.427 487.258 303.4C487.771 302.35 488.028 301.172 488.028 299.865C488.028 298.582 487.771 297.427 487.258 296.4C486.768 295.35 486.068 294.533 485.158 293.95C484.271 293.343 483.244 293.04 482.078 293.04C480.934 293.04 479.908 293.332 478.998 293.915C478.111 294.498 477.411 295.303 476.898 296.33C476.384 297.357 476.128 298.535 476.128 299.865C476.128 301.172 476.373 302.35 476.863 303.4C477.376 304.427 478.076 305.243 478.963 305.85C479.873 306.457 480.911 306.76 482.078 306.76ZM495.177 291.01H503.402C503.775 291.01 504.078 291.138 504.312 291.395C504.568 291.652 504.697 291.955 504.697 292.305C504.697 292.678 504.568 292.993 504.312 293.25C504.078 293.483 503.775 293.6 503.402 293.6H495.177C494.827 293.6 494.523 293.472 494.267 293.215C494.01 292.958 493.882 292.643 493.882 292.27C493.882 291.92 494.01 291.628 494.267 291.395C494.523 291.138 494.827 291.01 495.177 291.01ZM498.852 286.25C499.248 286.25 499.575 286.39 499.832 286.67C500.088 286.927 500.217 287.253 500.217 287.65V304.555C500.217 305.115 500.298 305.535 500.462 305.815C500.625 306.095 500.835 306.293 501.092 306.41C501.372 306.503 501.64 306.55 501.897 306.55C502.13 306.55 502.328 306.515 502.492 306.445C502.678 306.352 502.888 306.305 503.122 306.305C503.355 306.305 503.565 306.422 503.752 306.655C503.962 306.865 504.067 307.145 504.067 307.495C504.067 307.915 503.822 308.277 503.332 308.58C502.842 308.86 502.293 309 501.687 309C501.36 309 500.952 308.977 500.462 308.93C499.995 308.883 499.528 308.732 499.062 308.475C498.595 308.218 498.198 307.798 497.872 307.215C497.568 306.608 497.417 305.768 497.417 304.695V287.65C497.417 287.253 497.557 286.927 497.837 286.67C498.117 286.39 498.455 286.25 498.852 286.25ZM516.786 309.35C514.919 309.35 513.286 308.953 511.886 308.16C510.486 307.367 509.389 306.282 508.596 304.905C507.826 303.505 507.441 301.895 507.441 300.075C507.441 298.045 507.837 296.318 508.631 294.895C509.447 293.448 510.497 292.352 511.781 291.605C513.087 290.835 514.464 290.45 515.911 290.45C516.984 290.45 518.022 290.648 519.026 291.045C520.029 291.442 520.916 292.025 521.686 292.795C522.456 293.542 523.074 294.452 523.541 295.525C524.007 296.575 524.252 297.753 524.276 299.06C524.276 299.433 524.136 299.748 523.856 300.005C523.576 300.262 523.249 300.39 522.876 300.39H509.051L508.421 297.975H521.896L521.336 298.465V297.695C521.242 296.738 520.916 295.922 520.356 295.245C519.819 294.545 519.154 294.008 518.361 293.635C517.591 293.262 516.774 293.075 515.911 293.075C515.211 293.075 514.511 293.203 513.811 293.46C513.134 293.693 512.516 294.09 511.956 294.65C511.419 295.187 510.976 295.887 510.626 296.75C510.299 297.613 510.136 298.652 510.136 299.865C510.136 301.218 510.404 302.408 510.941 303.435C511.501 304.462 512.271 305.278 513.251 305.885C514.231 306.468 515.374 306.76 516.681 306.76C517.497 306.76 518.209 306.655 518.816 306.445C519.422 306.235 519.947 305.978 520.391 305.675C520.834 305.348 521.207 305.022 521.511 304.695C521.814 304.485 522.106 304.38 522.386 304.38C522.736 304.38 523.016 304.497 523.226 304.73C523.459 304.963 523.576 305.243 523.576 305.57C523.576 305.967 523.389 306.317 523.016 306.62C522.362 307.343 521.476 307.985 520.356 308.545C519.236 309.082 518.046 309.35 516.786 309.35ZM537.108 306.13C536.898 305.827 536.804 305.512 536.828 305.185C536.851 304.835 537.049 304.532 537.423 304.275C537.656 304.112 537.924 304.042 538.228 304.065C538.554 304.088 538.846 304.24 539.103 304.52C539.756 305.29 540.503 305.908 541.343 306.375C542.183 306.818 543.209 307.04 544.423 307.04C544.983 307.017 545.543 306.923 546.103 306.76C546.663 306.597 547.129 306.317 547.503 305.92C547.899 305.5 548.098 304.952 548.098 304.275C548.098 303.622 547.899 303.108 547.503 302.735C547.106 302.338 546.593 302.023 545.963 301.79C545.333 301.533 544.644 301.312 543.898 301.125C543.128 300.915 542.369 300.682 541.623 300.425C540.876 300.145 540.199 299.807 539.593 299.41C539.009 298.99 538.531 298.477 538.158 297.87C537.808 297.24 537.633 296.482 537.633 295.595C537.633 294.545 537.913 293.635 538.473 292.865C539.056 292.095 539.826 291.5 540.783 291.08C541.763 290.66 542.824 290.45 543.968 290.45C544.621 290.45 545.298 290.532 545.998 290.695C546.721 290.835 547.421 291.092 548.098 291.465C548.774 291.815 549.369 292.305 549.883 292.935C550.093 293.168 550.209 293.46 550.233 293.81C550.256 294.16 550.104 294.475 549.778 294.755C549.521 294.942 549.229 295.023 548.903 295C548.599 294.977 548.343 294.86 548.133 294.65C547.643 294.067 547.024 293.623 546.278 293.32C545.554 292.993 544.749 292.83 543.863 292.83C543.303 292.83 542.754 292.912 542.218 293.075C541.681 293.238 541.226 293.518 540.853 293.915C540.503 294.288 540.328 294.813 540.328 295.49C540.351 296.12 540.561 296.633 540.958 297.03C541.354 297.427 541.891 297.753 542.568 298.01C543.244 298.243 543.991 298.477 544.808 298.71C545.554 298.897 546.266 299.118 546.943 299.375C547.643 299.608 548.273 299.923 548.833 300.32C549.393 300.717 549.836 301.23 550.163 301.86C550.489 302.467 550.653 303.237 550.653 304.17C550.653 305.243 550.349 306.177 549.743 306.97C549.136 307.74 548.331 308.335 547.328 308.755C546.348 309.152 545.286 309.35 544.143 309.35C542.859 309.35 541.588 309.105 540.328 308.615C539.091 308.125 538.018 307.297 537.108 306.13ZM563.45 290.625C564.99 290.625 566.203 290.963 567.09 291.64C568 292.293 568.642 293.18 569.015 294.3C569.412 295.397 569.61 296.622 569.61 297.975V307.565C569.61 307.962 569.47 308.3 569.19 308.58C568.933 308.86 568.607 309 568.21 309C567.813 309 567.475 308.86 567.195 308.58C566.938 308.3 566.81 307.962 566.81 307.565V297.975C566.81 297.088 566.682 296.295 566.425 295.595C566.168 294.872 565.737 294.3 565.13 293.88C564.547 293.437 563.742 293.215 562.715 293.215C561.758 293.215 560.883 293.437 560.09 293.88C559.297 294.3 558.667 294.872 558.2 295.595C557.733 296.295 557.5 297.088 557.5 297.975V307.565C557.5 307.962 557.36 308.3 557.08 308.58C556.823 308.86 556.497 309 556.1 309C555.703 309 555.365 308.86 555.085 308.58C554.828 308.3 554.7 307.962 554.7 307.565V284.5C554.7 284.103 554.828 283.777 555.085 283.52C555.365 283.24 555.703 283.1 556.1 283.1C556.52 283.1 556.858 283.24 557.115 283.52C557.372 283.777 557.5 284.103 557.5 284.5V294.965L556.8 295.735C556.917 295.128 557.173 294.522 557.57 293.915C557.967 293.285 558.468 292.725 559.075 292.235C559.682 291.745 560.358 291.36 561.105 291.08C561.852 290.777 562.633 290.625 563.45 290.625ZM591.983 299.9C591.983 301.72 591.574 303.342 590.758 304.765C589.964 306.188 588.879 307.308 587.503 308.125C586.149 308.942 584.621 309.35 582.918 309.35C581.214 309.35 579.674 308.942 578.298 308.125C576.921 307.308 575.824 306.188 575.008 304.765C574.214 303.342 573.818 301.72 573.818 299.9C573.818 298.08 574.214 296.458 575.008 295.035C575.824 293.612 576.921 292.492 578.298 291.675C579.674 290.858 581.214 290.45 582.918 290.45C584.621 290.45 586.149 290.858 587.503 291.675C588.879 292.492 589.964 293.612 590.758 295.035C591.574 296.458 591.983 298.08 591.983 299.9ZM589.183 299.9C589.183 298.547 588.903 297.357 588.343 296.33C587.806 295.303 587.059 294.498 586.103 293.915C585.169 293.332 584.108 293.04 582.918 293.04C581.728 293.04 580.654 293.332 579.698 293.915C578.764 294.498 578.018 295.303 577.458 296.33C576.898 297.357 576.618 298.547 576.618 299.9C576.618 301.23 576.898 302.408 577.458 303.435C578.018 304.462 578.764 305.278 579.698 305.885C580.654 306.468 581.728 306.76 582.918 306.76C584.108 306.76 585.169 306.468 586.103 305.885C587.059 305.278 587.806 304.462 588.343 303.435C588.903 302.408 589.183 301.23 589.183 299.9ZM597.594 309C597.197 309 596.859 308.86 596.579 308.58C596.322 308.3 596.194 307.962 596.194 307.565V292.305C596.194 291.908 596.322 291.582 596.579 291.325C596.859 291.045 597.197 290.905 597.594 290.905C598.014 290.905 598.352 291.045 598.609 291.325C598.866 291.582 598.994 291.908 598.994 292.305V296.925L598.574 296.19C598.714 295.467 598.959 294.767 599.309 294.09C599.682 293.39 600.149 292.772 600.709 292.235C601.269 291.675 601.911 291.243 602.634 290.94C603.357 290.613 604.151 290.45 605.014 290.45C605.527 290.45 605.994 290.578 606.414 290.835C606.857 291.068 607.079 291.407 607.079 291.85C607.079 292.34 606.951 292.702 606.694 292.935C606.437 293.168 606.146 293.285 605.819 293.285C605.516 293.285 605.224 293.227 604.944 293.11C604.664 292.97 604.314 292.9 603.894 292.9C603.311 292.9 602.727 293.063 602.144 293.39C601.584 293.693 601.059 294.137 600.569 294.72C600.102 295.303 599.717 295.968 599.414 296.715C599.134 297.438 598.994 298.22 598.994 299.06V307.565C598.994 307.962 598.854 308.3 598.574 308.58C598.317 308.86 597.991 309 597.594 309ZM609.542 291.01H617.767C618.14 291.01 618.444 291.138 618.677 291.395C618.934 291.652 619.062 291.955 619.062 292.305C619.062 292.678 618.934 292.993 618.677 293.25C618.444 293.483 618.14 293.6 617.767 293.6H609.542C609.192 293.6 608.889 293.472 608.632 293.215C608.375 292.958 608.247 292.643 608.247 292.27C608.247 291.92 608.375 291.628 608.632 291.395C608.889 291.138 609.192 291.01 609.542 291.01ZM613.217 286.25C613.614 286.25 613.94 286.39 614.197 286.67C614.454 286.927 614.582 287.253 614.582 287.65V304.555C614.582 305.115 614.664 305.535 614.827 305.815C614.99 306.095 615.2 306.293 615.457 306.41C615.737 306.503 616.005 306.55 616.262 306.55C616.495 306.55 616.694 306.515 616.857 306.445C617.044 306.352 617.254 306.305 617.487 306.305C617.72 306.305 617.93 306.422 618.117 306.655C618.327 306.865 618.432 307.145 618.432 307.495C618.432 307.915 618.187 308.277 617.697 308.58C617.207 308.86 616.659 309 616.052 309C615.725 309 615.317 308.977 614.827 308.93C614.36 308.883 613.894 308.732 613.427 308.475C612.96 308.218 612.564 307.798 612.237 307.215C611.934 306.608 611.782 305.768 611.782 304.695V287.65C611.782 287.253 611.922 286.927 612.202 286.67C612.482 286.39 612.82 286.25 613.217 286.25ZM647.505 290.73C647.902 290.73 648.229 290.87 648.485 291.15C648.765 291.407 648.905 291.733 648.905 292.13V307.565C648.905 307.962 648.765 308.3 648.485 308.58C648.229 308.86 647.902 309 647.505 309C647.085 309 646.747 308.86 646.49 308.58C646.234 308.3 646.105 307.962 646.105 307.565V304.24L646.77 304.17C646.77 304.683 646.595 305.243 646.245 305.85C645.895 306.457 645.417 307.028 644.81 307.565C644.204 308.078 643.48 308.51 642.64 308.86C641.824 309.187 640.937 309.35 639.98 309.35C638.394 309.35 636.97 308.942 635.71 308.125C634.45 307.285 633.447 306.153 632.7 304.73C631.977 303.307 631.615 301.685 631.615 299.865C631.615 298.022 631.977 296.4 632.7 295C633.447 293.577 634.45 292.468 635.71 291.675C636.97 290.858 638.37 290.45 639.91 290.45C640.914 290.45 641.847 290.613 642.71 290.94C643.574 291.267 644.32 291.71 644.95 292.27C645.604 292.83 646.105 293.448 646.455 294.125C646.829 294.802 647.015 295.478 647.015 296.155L646.105 295.945V292.13C646.105 291.733 646.234 291.407 646.49 291.15C646.747 290.87 647.085 290.73 647.505 290.73ZM640.295 306.76C641.462 306.76 642.489 306.457 643.375 305.85C644.285 305.243 644.985 304.427 645.475 303.4C645.989 302.35 646.245 301.172 646.245 299.865C646.245 298.582 645.989 297.427 645.475 296.4C644.985 295.35 644.285 294.533 643.375 293.95C642.489 293.343 641.462 293.04 640.295 293.04C639.152 293.04 638.125 293.332 637.215 293.915C636.329 294.498 635.629 295.303 635.115 296.33C634.602 297.357 634.345 298.535 634.345 299.865C634.345 301.172 634.59 302.35 635.08 303.4C635.594 304.427 636.294 305.243 637.18 305.85C638.09 306.457 639.129 306.76 640.295 306.76ZM669.004 283.1C669.401 283.1 669.728 283.24 669.984 283.52C670.264 283.777 670.404 284.103 670.404 284.5V307.565C670.404 307.962 670.264 308.3 669.984 308.58C669.728 308.86 669.401 309 669.004 309C668.584 309 668.246 308.86 667.989 308.58C667.733 308.3 667.604 307.962 667.604 307.565V304.24L668.269 303.995C668.269 304.555 668.094 305.15 667.744 305.78C667.394 306.387 666.916 306.958 666.309 307.495C665.703 308.032 664.979 308.475 664.139 308.825C663.323 309.175 662.436 309.35 661.479 309.35C659.916 309.35 658.493 308.942 657.209 308.125C655.949 307.308 654.946 306.188 654.199 304.765C653.476 303.342 653.114 301.72 653.114 299.9C653.114 298.057 653.476 296.423 654.199 295C654.946 293.577 655.949 292.468 657.209 291.675C658.469 290.858 659.869 290.45 661.409 290.45C662.389 290.45 663.311 290.613 664.174 290.94C665.038 291.267 665.784 291.71 666.414 292.27C667.068 292.83 667.581 293.448 667.954 294.125C668.328 294.802 668.514 295.478 668.514 296.155L667.604 295.945V284.5C667.604 284.103 667.733 283.777 667.989 283.52C668.246 283.24 668.584 283.1 669.004 283.1ZM661.794 306.76C662.961 306.76 663.988 306.468 664.874 305.885C665.784 305.278 666.484 304.462 666.974 303.435C667.488 302.385 667.744 301.207 667.744 299.9C667.744 298.57 667.488 297.392 666.974 296.365C666.484 295.338 665.784 294.533 664.874 293.95C663.988 293.343 662.961 293.04 661.794 293.04C660.651 293.04 659.624 293.343 658.714 293.95C657.828 294.533 657.128 295.338 656.614 296.365C656.101 297.392 655.844 298.57 655.844 299.9C655.844 301.183 656.101 302.35 656.614 303.4C657.128 304.427 657.828 305.243 658.714 305.85C659.624 306.457 660.651 306.76 661.794 306.76ZM676.328 299.515C675.932 299.515 675.593 299.387 675.313 299.13C675.057 298.85 674.928 298.5 674.928 298.08C674.928 297.683 675.057 297.357 675.313 297.1C675.593 296.843 675.932 296.715 676.328 296.715H683.398C683.795 296.715 684.122 296.855 684.378 297.135C684.658 297.415 684.798 297.753 684.798 298.15C684.798 298.547 684.658 298.873 684.378 299.13C684.122 299.387 683.795 299.515 683.398 299.515H676.328ZM698.049 290.625C699.589 290.625 700.803 290.963 701.689 291.64C702.599 292.293 703.241 293.18 703.614 294.3C704.011 295.397 704.209 296.622 704.209 297.975V307.565C704.209 307.962 704.069 308.3 703.789 308.58C703.533 308.86 703.206 309 702.809 309C702.413 309 702.074 308.86 701.794 308.58C701.538 308.3 701.409 307.962 701.409 307.565V297.975C701.409 297.088 701.281 296.295 701.024 295.595C700.768 294.872 700.336 294.3 699.729 293.88C699.146 293.437 698.341 293.215 697.314 293.215C696.358 293.215 695.483 293.437 694.689 293.88C693.896 294.3 693.266 294.872 692.799 295.595C692.333 296.295 692.099 297.088 692.099 297.975V307.565C692.099 307.962 691.959 308.3 691.679 308.58C691.423 308.86 691.096 309 690.699 309C690.303 309 689.964 308.86 689.684 308.58C689.428 308.3 689.299 307.962 689.299 307.565V284.5C689.299 284.103 689.428 283.777 689.684 283.52C689.964 283.24 690.303 283.1 690.699 283.1C691.119 283.1 691.458 283.24 691.714 283.52C691.971 283.777 692.099 284.103 692.099 284.5V294.965L691.399 295.735C691.516 295.128 691.773 294.522 692.169 293.915C692.566 293.285 693.068 292.725 693.674 292.235C694.281 291.745 694.958 291.36 695.704 291.08C696.451 290.777 697.233 290.625 698.049 290.625ZM726.582 299.9C726.582 301.72 726.174 303.342 725.357 304.765C724.564 306.188 723.479 307.308 722.102 308.125C720.749 308.942 719.22 309.35 717.517 309.35C715.814 309.35 714.274 308.942 712.897 308.125C711.52 307.308 710.424 306.188 709.607 304.765C708.814 303.342 708.417 301.72 708.417 299.9C708.417 298.08 708.814 296.458 709.607 295.035C710.424 293.612 711.52 292.492 712.897 291.675C714.274 290.858 715.814 290.45 717.517 290.45C719.22 290.45 720.749 290.858 722.102 291.675C723.479 292.492 724.564 293.612 725.357 295.035C726.174 296.458 726.582 298.08 726.582 299.9ZM723.782 299.9C723.782 298.547 723.502 297.357 722.942 296.33C722.405 295.303 721.659 294.498 720.702 293.915C719.769 293.332 718.707 293.04 717.517 293.04C716.327 293.04 715.254 293.332 714.297 293.915C713.364 294.498 712.617 295.303 712.057 296.33C711.497 297.357 711.217 298.547 711.217 299.9C711.217 301.23 711.497 302.408 712.057 303.435C712.617 304.462 713.364 305.278 714.297 305.885C715.254 306.468 716.327 306.76 717.517 306.76C718.707 306.76 719.769 306.468 720.702 305.885C721.659 305.278 722.405 304.462 722.942 303.435C723.502 302.408 723.782 301.23 723.782 299.9ZM738.844 290.45C740.034 290.45 741.107 290.578 742.064 290.835C743.02 291.092 743.779 291.442 744.339 291.885C744.899 292.328 745.179 292.83 745.179 293.39C745.179 293.693 745.074 293.985 744.864 294.265C744.654 294.545 744.374 294.685 744.024 294.685C743.697 294.685 743.429 294.627 743.219 294.51C743.032 294.393 742.845 294.242 742.659 294.055C742.495 293.868 742.262 293.705 741.959 293.565C741.679 293.402 741.27 293.273 740.734 293.18C740.197 293.087 739.66 293.04 739.124 293.04C737.84 293.04 736.709 293.343 735.729 293.95C734.772 294.557 734.014 295.373 733.454 296.4C732.894 297.427 732.614 298.593 732.614 299.9C732.614 301.207 732.882 302.373 733.419 303.4C733.955 304.427 734.702 305.243 735.659 305.85C736.615 306.457 737.724 306.76 738.984 306.76C739.8 306.76 740.454 306.69 740.944 306.55C741.434 306.41 741.842 306.247 742.169 306.06C742.589 305.827 742.904 305.593 743.114 305.36C743.347 305.127 743.65 305.01 744.024 305.01C744.42 305.01 744.724 305.138 744.934 305.395C745.167 305.652 745.284 305.967 745.284 306.34C745.284 306.76 744.992 307.203 744.409 307.67C743.825 308.137 743.032 308.533 742.029 308.86C741.049 309.187 739.929 309.35 738.669 309.35C736.895 309.35 735.344 308.942 734.014 308.125C732.684 307.285 731.645 306.153 730.899 304.73C730.175 303.283 729.814 301.673 729.814 299.9C729.814 298.127 730.187 296.528 730.934 295.105C731.704 293.682 732.765 292.55 734.119 291.71C735.472 290.87 737.047 290.45 738.844 290.45ZM760.472 284.5H772.932C773.328 284.5 773.667 284.628 773.947 284.885C774.227 285.142 774.367 285.468 774.367 285.865C774.367 286.262 774.227 286.588 773.947 286.845C773.667 287.078 773.328 287.195 772.932 287.195H761.662L761.977 286.6V295.455L761.627 295.07H771.357C771.753 295.07 772.092 295.198 772.372 295.455C772.652 295.712 772.792 296.038 772.792 296.435C772.792 296.832 772.652 297.158 772.372 297.415C772.092 297.648 771.753 297.765 771.357 297.765H761.732L761.977 297.45V306.515L761.767 306.27H772.932C773.328 306.27 773.667 306.41 773.947 306.69C774.227 306.97 774.367 307.285 774.367 307.635C774.367 308.032 774.227 308.358 773.947 308.615C773.667 308.872 773.328 309 772.932 309H760.472C760.075 309 759.737 308.86 759.457 308.58C759.2 308.3 759.072 307.962 759.072 307.565V285.9C759.072 285.503 759.2 285.177 759.457 284.92C759.737 284.64 760.075 284.5 760.472 284.5ZM787.538 290.45C789.124 290.45 790.373 290.777 791.283 291.43C792.193 292.083 792.834 292.958 793.208 294.055C793.604 295.152 793.803 296.377 793.803 297.73V307.565C793.803 307.962 793.663 308.3 793.383 308.58C793.126 308.86 792.799 309 792.403 309C792.006 309 791.668 308.86 791.388 308.58C791.131 308.3 791.003 307.962 791.003 307.565V297.8C791.003 296.913 790.863 296.12 790.583 295.42C790.326 294.697 789.883 294.125 789.253 293.705C788.646 293.262 787.806 293.04 786.733 293.04C785.753 293.04 784.854 293.262 784.038 293.705C783.221 294.125 782.568 294.697 782.078 295.42C781.588 296.12 781.343 296.913 781.343 297.8V307.565C781.343 307.962 781.203 308.3 780.923 308.58C780.666 308.86 780.339 309 779.943 309C779.546 309 779.208 308.86 778.928 308.58C778.671 308.3 778.543 307.962 778.543 307.565V292.305C778.543 291.908 778.671 291.582 778.928 291.325C779.208 291.045 779.546 290.905 779.943 290.905C780.363 290.905 780.701 291.045 780.958 291.325C781.214 291.582 781.343 291.908 781.343 292.305V294.79L780.643 295.56C780.759 294.953 781.028 294.347 781.448 293.74C781.868 293.11 782.393 292.55 783.023 292.06C783.653 291.57 784.353 291.185 785.123 290.905C785.893 290.602 786.698 290.45 787.538 290.45ZM806.577 290.45C807.58 290.45 808.514 290.625 809.377 290.975C810.24 291.302 810.987 291.733 811.617 292.27C812.27 292.807 812.772 293.367 813.122 293.95C813.495 294.533 813.682 295.082 813.682 295.595L813.017 295.175V292.13C813.017 291.733 813.145 291.407 813.402 291.15C813.659 290.87 813.997 290.73 814.417 290.73C814.814 290.73 815.14 290.87 815.397 291.15C815.677 291.407 815.817 291.733 815.817 292.13V307.46C815.817 309.373 815.409 310.96 814.592 312.22C813.799 313.48 812.725 314.425 811.372 315.055C810.019 315.685 808.502 316 806.822 316C806.122 316 805.352 315.907 804.512 315.72C803.672 315.533 802.925 315.3 802.272 315.02C801.619 314.763 801.199 314.495 801.012 314.215C800.662 313.982 800.44 313.713 800.347 313.41C800.277 313.13 800.335 312.862 800.522 312.605C800.732 312.278 801 312.115 801.327 312.115C801.677 312.115 802.109 312.22 802.622 312.43C802.832 312.5 803.159 312.617 803.602 312.78C804.069 312.943 804.582 313.083 805.142 313.2C805.725 313.34 806.297 313.41 806.857 313.41C808.84 313.41 810.357 312.885 811.407 311.835C812.48 310.808 813.017 309.443 813.017 307.74V304.485L813.402 304.66C813.262 305.313 812.97 305.92 812.527 306.48C812.107 307.04 811.582 307.542 810.952 307.985C810.345 308.405 809.669 308.743 808.922 309C808.175 309.233 807.417 309.35 806.647 309.35C805.014 309.35 803.544 308.942 802.237 308.125C800.93 307.308 799.892 306.188 799.122 304.765C798.375 303.342 798.002 301.72 798.002 299.9C798.002 298.057 798.375 296.423 799.122 295C799.892 293.577 800.919 292.468 802.202 291.675C803.509 290.858 804.967 290.45 806.577 290.45ZM806.927 293.04C805.737 293.04 804.664 293.343 803.707 293.95C802.774 294.533 802.039 295.338 801.502 296.365C800.989 297.392 800.732 298.57 800.732 299.9C800.732 301.183 800.989 302.35 801.502 303.4C802.039 304.427 802.774 305.243 803.707 305.85C804.664 306.457 805.737 306.76 806.927 306.76C808.14 306.76 809.214 306.468 810.147 305.885C811.08 305.278 811.815 304.462 812.352 303.435C812.889 302.408 813.157 301.23 813.157 299.9C813.157 298.547 812.889 297.357 812.352 296.33C811.815 295.303 811.08 294.498 810.147 293.915C809.214 293.332 808.14 293.04 806.927 293.04ZM824.074 307.565C824.074 307.962 823.934 308.3 823.654 308.58C823.374 308.86 823.035 309 822.639 309C822.242 309 821.915 308.86 821.659 308.58C821.402 308.3 821.274 307.962 821.274 307.565V284.5C821.274 284.103 821.402 283.777 821.659 283.52C821.939 283.24 822.277 283.1 822.674 283.1C823.094 283.1 823.432 283.24 823.689 283.52C823.945 283.777 824.074 284.103 824.074 284.5V307.565ZM832.2 307.565C832.2 307.962 832.06 308.3 831.78 308.58C831.523 308.86 831.196 309 830.8 309C830.38 309 830.041 308.86 829.785 308.58C829.528 308.3 829.4 307.962 829.4 307.565V292.025C829.4 291.628 829.528 291.302 829.785 291.045C830.065 290.765 830.403 290.625 830.8 290.625C831.196 290.625 831.523 290.765 831.78 291.045C832.06 291.302 832.2 291.628 832.2 292.025V307.565ZM830.8 288.28C830.216 288.28 829.785 288.163 829.505 287.93C829.225 287.697 829.085 287.335 829.085 286.845V286.355C829.085 285.865 829.236 285.503 829.54 285.27C829.843 285.037 830.275 284.92 830.835 284.92C831.395 284.92 831.815 285.037 832.095 285.27C832.375 285.503 832.515 285.865 832.515 286.355V286.845C832.515 287.335 832.363 287.697 832.06 287.93C831.78 288.163 831.36 288.28 830.8 288.28ZM836.214 306.13C836.004 305.827 835.911 305.512 835.934 305.185C835.957 304.835 836.156 304.532 836.529 304.275C836.762 304.112 837.031 304.042 837.334 304.065C837.661 304.088 837.952 304.24 838.209 304.52C838.862 305.29 839.609 305.908 840.449 306.375C841.289 306.818 842.316 307.04 843.529 307.04C844.089 307.017 844.649 306.923 845.209 306.76C845.769 306.597 846.236 306.317 846.609 305.92C847.006 305.5 847.204 304.952 847.204 304.275C847.204 303.622 847.006 303.108 846.609 302.735C846.212 302.338 845.699 302.023 845.069 301.79C844.439 301.533 843.751 301.312 843.004 301.125C842.234 300.915 841.476 300.682 840.729 300.425C839.982 300.145 839.306 299.807 838.699 299.41C838.116 298.99 837.637 298.477 837.264 297.87C836.914 297.24 836.739 296.482 836.739 295.595C836.739 294.545 837.019 293.635 837.579 292.865C838.162 292.095 838.932 291.5 839.889 291.08C840.869 290.66 841.931 290.45 843.074 290.45C843.727 290.45 844.404 290.532 845.104 290.695C845.827 290.835 846.527 291.092 847.204 291.465C847.881 291.815 848.476 292.305 848.989 292.935C849.199 293.168 849.316 293.46 849.339 293.81C849.362 294.16 849.211 294.475 848.884 294.755C848.627 294.942 848.336 295.023 848.009 295C847.706 294.977 847.449 294.86 847.239 294.65C846.749 294.067 846.131 293.623 845.384 293.32C844.661 292.993 843.856 292.83 842.969 292.83C842.409 292.83 841.861 292.912 841.324 293.075C840.787 293.238 840.332 293.518 839.959 293.915C839.609 294.288 839.434 294.813 839.434 295.49C839.457 296.12 839.667 296.633 840.064 297.03C840.461 297.427 840.997 297.753 841.674 298.01C842.351 298.243 843.097 298.477 843.914 298.71C844.661 298.897 845.372 299.118 846.049 299.375C846.749 299.608 847.379 299.923 847.939 300.32C848.499 300.717 848.942 301.23 849.269 301.86C849.596 302.467 849.759 303.237 849.759 304.17C849.759 305.243 849.456 306.177 848.849 306.97C848.242 307.74 847.437 308.335 846.434 308.755C845.454 309.152 844.392 309.35 843.249 309.35C841.966 309.35 840.694 309.105 839.434 308.615C838.197 308.125 837.124 307.297 836.214 306.13ZM862.556 290.625C864.096 290.625 865.31 290.963 866.196 291.64C867.106 292.293 867.748 293.18 868.121 294.3C868.518 295.397 868.716 296.622 868.716 297.975V307.565C868.716 307.962 868.576 308.3 868.296 308.58C868.04 308.86 867.713 309 867.316 309C866.92 309 866.581 308.86 866.301 308.58C866.045 308.3 865.916 307.962 865.916 307.565V297.975C865.916 297.088 865.788 296.295 865.531 295.595C865.275 294.872 864.843 294.3 864.236 293.88C863.653 293.437 862.848 293.215 861.821 293.215C860.865 293.215 859.99 293.437 859.196 293.88C858.403 294.3 857.773 294.872 857.306 295.595C856.84 296.295 856.606 297.088 856.606 297.975V307.565C856.606 307.962 856.466 308.3 856.186 308.58C855.93 308.86 855.603 309 855.206 309C854.81 309 854.471 308.86 854.191 308.58C853.935 308.3 853.806 307.962 853.806 307.565V284.5C853.806 284.103 853.935 283.777 854.191 283.52C854.471 283.24 854.81 283.1 855.206 283.1C855.626 283.1 855.965 283.24 856.221 283.52C856.478 283.777 856.606 284.103 856.606 284.5V294.965L855.906 295.735C856.023 295.128 856.28 294.522 856.676 293.915C857.073 293.285 857.575 292.725 858.181 292.235C858.788 291.745 859.465 291.36 860.211 291.08C860.958 290.777 861.74 290.625 862.556 290.625ZM886.623 307.565C886.623 307.962 886.483 308.3 886.203 308.58C885.923 308.86 885.584 309 885.188 309C884.791 309 884.464 308.86 884.208 308.58C883.951 308.3 883.823 307.962 883.823 307.565V284.5C883.823 284.103 883.951 283.777 884.208 283.52C884.488 283.24 884.826 283.1 885.223 283.1C885.643 283.1 885.981 283.24 886.238 283.52C886.494 283.777 886.623 284.103 886.623 284.5V307.565ZM900.077 309.35C898.21 309.35 896.577 308.953 895.177 308.16C893.777 307.367 892.68 306.282 891.887 304.905C891.117 303.505 890.732 301.895 890.732 300.075C890.732 298.045 891.128 296.318 891.922 294.895C892.738 293.448 893.788 292.352 895.072 291.605C896.378 290.835 897.755 290.45 899.202 290.45C900.275 290.45 901.313 290.648 902.317 291.045C903.32 291.442 904.207 292.025 904.977 292.795C905.747 293.542 906.365 294.452 906.832 295.525C907.298 296.575 907.543 297.753 907.567 299.06C907.567 299.433 907.427 299.748 907.147 300.005C906.867 300.262 906.54 300.39 906.167 300.39H892.342L891.712 297.975H905.187L904.627 298.465V297.695C904.533 296.738 904.207 295.922 903.647 295.245C903.11 294.545 902.445 294.008 901.652 293.635C900.882 293.262 900.065 293.075 899.202 293.075C898.502 293.075 897.802 293.203 897.102 293.46C896.425 293.693 895.807 294.09 895.247 294.65C894.71 295.187 894.267 295.887 893.917 296.75C893.59 297.613 893.427 298.652 893.427 299.865C893.427 301.218 893.695 302.408 894.232 303.435C894.792 304.462 895.562 305.278 896.542 305.885C897.522 306.468 898.665 306.76 899.972 306.76C900.788 306.76 901.5 306.655 902.107 306.445C902.713 306.235 903.238 305.978 903.682 305.675C904.125 305.348 904.498 305.022 904.802 304.695C905.105 304.485 905.397 304.38 905.677 304.38C906.027 304.38 906.307 304.497 906.517 304.73C906.75 304.963 906.867 305.243 906.867 305.57C906.867 305.967 906.68 306.317 906.307 306.62C905.653 307.343 904.767 307.985 903.647 308.545C902.527 309.082 901.337 309.35 900.077 309.35ZM910.76 306.13C910.55 305.827 910.457 305.512 910.48 305.185C910.503 304.835 910.702 304.532 911.075 304.275C911.308 304.112 911.577 304.042 911.88 304.065C912.207 304.088 912.498 304.24 912.755 304.52C913.408 305.29 914.155 305.908 914.995 306.375C915.835 306.818 916.862 307.04 918.075 307.04C918.635 307.017 919.195 306.923 919.755 306.76C920.315 306.597 920.782 306.317 921.155 305.92C921.552 305.5 921.75 304.952 921.75 304.275C921.75 303.622 921.552 303.108 921.155 302.735C920.758 302.338 920.245 302.023 919.615 301.79C918.985 301.533 918.297 301.312 917.55 301.125C916.78 300.915 916.022 300.682 915.275 300.425C914.528 300.145 913.852 299.807 913.245 299.41C912.662 298.99 912.183 298.477 911.81 297.87C911.46 297.24 911.285 296.482 911.285 295.595C911.285 294.545 911.565 293.635 912.125 292.865C912.708 292.095 913.478 291.5 914.435 291.08C915.415 290.66 916.477 290.45 917.62 290.45C918.273 290.45 918.95 290.532 919.65 290.695C920.373 290.835 921.073 291.092 921.75 291.465C922.427 291.815 923.022 292.305 923.535 292.935C923.745 293.168 923.862 293.46 923.885 293.81C923.908 294.16 923.757 294.475 923.43 294.755C923.173 294.942 922.882 295.023 922.555 295C922.252 294.977 921.995 294.86 921.785 294.65C921.295 294.067 920.677 293.623 919.93 293.32C919.207 292.993 918.402 292.83 917.515 292.83C916.955 292.83 916.407 292.912 915.87 293.075C915.333 293.238 914.878 293.518 914.505 293.915C914.155 294.288 913.98 294.813 913.98 295.49C914.003 296.12 914.213 296.633 914.61 297.03C915.007 297.427 915.543 297.753 916.22 298.01C916.897 298.243 917.643 298.477 918.46 298.71C919.207 298.897 919.918 299.118 920.595 299.375C921.295 299.608 921.925 299.923 922.485 300.32C923.045 300.717 923.488 301.23 923.815 301.86C924.142 302.467 924.305 303.237 924.305 304.17C924.305 305.243 924.002 306.177 923.395 306.97C922.788 307.74 921.983 308.335 920.98 308.755C920 309.152 918.938 309.35 917.795 309.35C916.512 309.35 915.24 309.105 913.98 308.615C912.743 308.125 911.67 307.297 910.76 306.13ZM927.337 306.13C927.127 305.827 927.034 305.512 927.057 305.185C927.081 304.835 927.279 304.532 927.652 304.275C927.886 304.112 928.154 304.042 928.457 304.065C928.784 304.088 929.076 304.24 929.332 304.52C929.986 305.29 930.732 305.908 931.572 306.375C932.412 306.818 933.439 307.04 934.652 307.04C935.212 307.017 935.772 306.923 936.332 306.76C936.892 306.597 937.359 306.317 937.732 305.92C938.129 305.5 938.327 304.952 938.327 304.275C938.327 303.622 938.129 303.108 937.732 302.735C937.336 302.338 936.822 302.023 936.192 301.79C935.562 301.533 934.874 301.312 934.127 301.125C933.357 300.915 932.599 300.682 931.852 300.425C931.106 300.145 930.429 299.807 929.822 299.41C929.239 298.99 928.761 298.477 928.387 297.87C928.037 297.24 927.862 296.482 927.862 295.595C927.862 294.545 928.142 293.635 928.702 292.865C929.286 292.095 930.056 291.5 931.012 291.08C931.992 290.66 933.054 290.45 934.197 290.45C934.851 290.45 935.527 290.532 936.227 290.695C936.951 290.835 937.651 291.092 938.327 291.465C939.004 291.815 939.599 292.305 940.112 292.935C940.322 293.168 940.439 293.46 940.462 293.81C940.486 294.16 940.334 294.475 940.007 294.755C939.751 294.942 939.459 295.023 939.132 295C938.829 294.977 938.572 294.86 938.362 294.65C937.872 294.067 937.254 293.623 936.507 293.32C935.784 292.993 934.979 292.83 934.092 292.83C933.532 292.83 932.984 292.912 932.447 293.075C931.911 293.238 931.456 293.518 931.082 293.915C930.732 294.288 930.557 294.813 930.557 295.49C930.581 296.12 930.791 296.633 931.187 297.03C931.584 297.427 932.121 297.753 932.797 298.01C933.474 298.243 934.221 298.477 935.037 298.71C935.784 298.897 936.496 299.118 937.172 299.375C937.872 299.608 938.502 299.923 939.062 300.32C939.622 300.717 940.066 301.23 940.392 301.86C940.719 302.467 940.882 303.237 940.882 304.17C940.882 305.243 940.579 306.177 939.972 306.97C939.366 307.74 938.561 308.335 937.557 308.755C936.577 309.152 935.516 309.35 934.372 309.35C933.089 309.35 931.817 309.105 930.557 308.615C929.321 308.125 928.247 307.297 927.337 306.13ZM962.114 299.9C962.114 301.72 961.706 303.342 960.889 304.765C960.096 306.188 959.011 307.308 957.634 308.125C956.281 308.942 954.753 309.35 953.049 309.35C951.346 309.35 949.806 308.942 948.429 308.125C947.053 307.308 945.956 306.188 945.139 304.765C944.346 303.342 943.949 301.72 943.949 299.9C943.949 298.08 944.346 296.458 945.139 295.035C945.956 293.612 947.053 292.492 948.429 291.675C949.806 290.858 951.346 290.45 953.049 290.45C954.753 290.45 956.281 290.858 957.634 291.675C959.011 292.492 960.096 293.612 960.889 295.035C961.706 296.458 962.114 298.08 962.114 299.9ZM959.314 299.9C959.314 298.547 959.034 297.357 958.474 296.33C957.938 295.303 957.191 294.498 956.234 293.915C955.301 293.332 954.239 293.04 953.049 293.04C951.859 293.04 950.786 293.332 949.829 293.915C948.896 294.498 948.149 295.303 947.589 296.33C947.029 297.357 946.749 298.547 946.749 299.9C946.749 301.23 947.029 302.408 947.589 303.435C948.149 304.462 948.896 305.278 949.829 305.885C950.786 306.468 951.859 306.76 953.049 306.76C954.239 306.76 955.301 306.468 956.234 305.885C957.191 305.278 957.938 304.462 958.474 303.435C959.034 302.408 959.314 301.23 959.314 299.9ZM975.321 290.45C976.908 290.45 978.156 290.777 979.066 291.43C979.976 292.083 980.618 292.958 980.991 294.055C981.388 295.152 981.586 296.377 981.586 297.73V307.565C981.586 307.962 981.446 308.3 981.166 308.58C980.909 308.86 980.583 309 980.186 309C979.789 309 979.451 308.86 979.171 308.58C978.914 308.3 978.786 307.962 978.786 307.565V297.8C978.786 296.913 978.646 296.12 978.366 295.42C978.109 294.697 977.666 294.125 977.036 293.705C976.429 293.262 975.589 293.04 974.516 293.04C973.536 293.04 972.638 293.262 971.821 293.705C971.004 294.125 970.351 294.697 969.861 295.42C969.371 296.12 969.126 296.913 969.126 297.8V307.565C969.126 307.962 968.986 308.3 968.706 308.58C968.449 308.86 968.123 309 967.726 309C967.329 309 966.991 308.86 966.711 308.58C966.454 308.3 966.326 307.962 966.326 307.565V292.305C966.326 291.908 966.454 291.582 966.711 291.325C966.991 291.045 967.329 290.905 967.726 290.905C968.146 290.905 968.484 291.045 968.741 291.325C968.998 291.582 969.126 291.908 969.126 292.305V294.79L968.426 295.56C968.543 294.953 968.811 294.347 969.231 293.74C969.651 293.11 970.176 292.55 970.806 292.06C971.436 291.57 972.136 291.185 972.906 290.905C973.676 290.602 974.481 290.45 975.321 290.45ZM985.75 306.13C985.54 305.827 985.447 305.512 985.47 305.185C985.494 304.835 985.692 304.532 986.065 304.275C986.299 304.112 986.567 304.042 986.87 304.065C987.197 304.088 987.489 304.24 987.745 304.52C988.399 305.29 989.145 305.908 989.985 306.375C990.825 306.818 991.852 307.04 993.065 307.04C993.625 307.017 994.185 306.923 994.745 306.76C995.305 306.597 995.772 306.317 996.145 305.92C996.542 305.5 996.74 304.952 996.74 304.275C996.74 303.622 996.542 303.108 996.145 302.735C995.749 302.338 995.235 302.023 994.605 301.79C993.975 301.533 993.287 301.312 992.54 301.125C991.77 300.915 991.012 300.682 990.265 300.425C989.519 300.145 988.842 299.807 988.235 299.41C987.652 298.99 987.174 298.477 986.8 297.87C986.45 297.24 986.275 296.482 986.275 295.595C986.275 294.545 986.555 293.635 987.115 292.865C987.699 292.095 988.469 291.5 989.425 291.08C990.405 290.66 991.467 290.45 992.61 290.45C993.264 290.45 993.94 290.532 994.64 290.695C995.364 290.835 996.064 291.092 996.74 291.465C997.417 291.815 998.012 292.305 998.525 292.935C998.735 293.168 998.852 293.46 998.875 293.81C998.899 294.16 998.747 294.475 998.42 294.755C998.164 294.942 997.872 295.023 997.545 295C997.242 294.977 996.985 294.86 996.775 294.65C996.285 294.067 995.667 293.623 994.92 293.32C994.197 292.993 993.392 292.83 992.505 292.83C991.945 292.83 991.397 292.912 990.86 293.075C990.324 293.238 989.869 293.518 989.495 293.915C989.145 294.288 988.97 294.813 988.97 295.49C988.994 296.12 989.204 296.633 989.6 297.03C989.997 297.427 990.534 297.753 991.21 298.01C991.887 298.243 992.634 298.477 993.45 298.71C994.197 298.897 994.909 299.118 995.585 299.375C996.285 299.608 996.915 299.923 997.475 300.32C998.035 300.717 998.479 301.23 998.805 301.86C999.132 302.467 999.295 303.237 999.295 304.17C999.295 305.243 998.992 306.177 998.385 306.97C997.779 307.74 996.974 308.335 995.97 308.755C994.99 309.152 993.929 309.35 992.785 309.35C991.502 309.35 990.23 309.105 988.97 308.615C987.734 308.125 986.66 307.297 985.75 306.13ZM543.376 327.17C543.772 327.17 544.181 327.217 544.601 327.31C545.044 327.403 545.417 327.567 545.721 327.8C546.047 328.033 546.211 328.348 546.211 328.745C546.211 329.118 546.094 329.433 545.861 329.69C545.627 329.923 545.347 330.04 545.021 330.04C544.811 330.04 544.519 329.982 544.146 329.865C543.772 329.725 543.387 329.655 542.991 329.655C542.454 329.655 542.011 329.772 541.661 330.005C541.334 330.238 541.089 330.553 540.926 330.95C540.786 331.323 540.716 331.743 540.716 332.21V351.565C540.716 351.962 540.576 352.3 540.296 352.58C540.039 352.86 539.712 353 539.316 353C538.896 353 538.557 352.86 538.301 352.58C538.044 352.3 537.916 351.962 537.916 351.565V332.245C537.916 330.682 538.394 329.445 539.351 328.535C540.331 327.625 541.672 327.17 543.376 327.17ZM544.356 335.185C544.729 335.185 545.044 335.313 545.301 335.57C545.557 335.803 545.686 336.107 545.686 336.48C545.686 336.853 545.557 337.168 545.301 337.425C545.044 337.658 544.729 337.775 544.356 337.775H535.571C535.197 337.775 534.882 337.647 534.626 337.39C534.369 337.133 534.241 336.83 534.241 336.48C534.241 336.083 534.369 335.768 534.626 335.535C534.882 335.302 535.197 335.185 535.571 335.185H544.356ZM565.271 343.9C565.271 345.72 564.863 347.342 564.046 348.765C563.253 350.188 562.168 351.308 560.791 352.125C559.438 352.942 557.909 353.35 556.206 353.35C554.503 353.35 552.963 352.942 551.586 352.125C550.209 351.308 549.113 350.188 548.296 348.765C547.503 347.342 547.106 345.72 547.106 343.9C547.106 342.08 547.503 340.458 548.296 339.035C549.113 337.612 550.209 336.492 551.586 335.675C552.963 334.858 554.503 334.45 556.206 334.45C557.909 334.45 559.438 334.858 560.791 335.675C562.168 336.492 563.253 337.612 564.046 339.035C564.863 340.458 565.271 342.08 565.271 343.9ZM562.471 343.9C562.471 342.547 562.191 341.357 561.631 340.33C561.094 339.303 560.348 338.498 559.391 337.915C558.458 337.332 557.396 337.04 556.206 337.04C555.016 337.04 553.943 337.332 552.986 337.915C552.053 338.498 551.306 339.303 550.746 340.33C550.186 341.357 549.906 342.547 549.906 343.9C549.906 345.23 550.186 346.408 550.746 347.435C551.306 348.462 552.053 349.278 552.986 349.885C553.943 350.468 555.016 350.76 556.206 350.76C557.396 350.76 558.458 350.468 559.391 349.885C560.348 349.278 561.094 348.462 561.631 347.435C562.191 346.408 562.471 345.23 562.471 343.9ZM570.883 353C570.486 353 570.148 352.86 569.868 352.58C569.611 352.3 569.483 351.962 569.483 351.565V336.305C569.483 335.908 569.611 335.582 569.868 335.325C570.148 335.045 570.486 334.905 570.883 334.905C571.303 334.905 571.641 335.045 571.898 335.325C572.154 335.582 572.283 335.908 572.283 336.305V340.925L571.863 340.19C572.003 339.467 572.248 338.767 572.598 338.09C572.971 337.39 573.438 336.772 573.998 336.235C574.558 335.675 575.199 335.243 575.923 334.94C576.646 334.613 577.439 334.45 578.303 334.45C578.816 334.45 579.283 334.578 579.703 334.835C580.146 335.068 580.368 335.407 580.368 335.85C580.368 336.34 580.239 336.702 579.983 336.935C579.726 337.168 579.434 337.285 579.108 337.285C578.804 337.285 578.513 337.227 578.233 337.11C577.953 336.97 577.603 336.9 577.183 336.9C576.599 336.9 576.016 337.063 575.433 337.39C574.873 337.693 574.348 338.137 573.858 338.72C573.391 339.303 573.006 339.968 572.703 340.715C572.423 341.438 572.283 342.22 572.283 343.06V351.565C572.283 351.962 572.143 352.3 571.863 352.58C571.606 352.86 571.279 353 570.883 353ZM606.714 334.625C607.111 334.625 607.437 334.765 607.694 335.045C607.974 335.302 608.114 335.628 608.114 336.025V351.285C608.114 353.245 607.729 354.867 606.959 356.15C606.189 357.457 605.151 358.425 603.844 359.055C602.561 359.685 601.102 360 599.469 360C598.559 360 597.684 359.907 596.844 359.72C596.004 359.533 595.316 359.288 594.779 358.985C594.336 358.775 594.021 358.507 593.834 358.18C593.671 357.877 593.647 357.55 593.764 357.2C593.927 356.78 594.161 356.488 594.464 356.325C594.791 356.162 595.129 356.162 595.479 356.325C595.852 356.488 596.389 356.71 597.089 356.99C597.812 357.293 598.617 357.445 599.504 357.445C600.717 357.445 601.756 357.212 602.619 356.745C603.482 356.278 604.147 355.59 604.614 354.68C605.081 353.793 605.314 352.685 605.314 351.355V348.87L605.734 349.745C605.361 350.468 604.859 351.098 604.229 351.635C603.599 352.172 602.876 352.592 602.059 352.895C601.242 353.198 600.344 353.35 599.364 353.35C598.034 353.35 596.902 353.07 595.969 352.51C595.059 351.927 594.359 351.133 593.869 350.13C593.402 349.103 593.169 347.925 593.169 346.595V336.025C593.169 335.628 593.297 335.302 593.554 335.045C593.834 334.765 594.172 334.625 594.569 334.625C594.989 334.625 595.327 334.765 595.584 335.045C595.841 335.302 595.969 335.628 595.969 336.025V345.965C595.969 347.552 596.319 348.753 597.019 349.57C597.719 350.363 598.804 350.76 600.274 350.76C601.207 350.76 602.047 350.55 602.794 350.13C603.564 349.71 604.171 349.138 604.614 348.415C605.081 347.668 605.314 346.852 605.314 345.965V336.025C605.314 335.628 605.442 335.302 605.699 335.045C605.956 334.765 606.294 334.625 606.714 334.625ZM630.315 343.9C630.315 345.72 629.907 347.342 629.09 348.765C628.297 350.188 627.212 351.308 625.835 352.125C624.482 352.942 622.953 353.35 621.25 353.35C619.547 353.35 618.007 352.942 616.63 352.125C615.253 351.308 614.157 350.188 613.34 348.765C612.547 347.342 612.15 345.72 612.15 343.9C612.15 342.08 612.547 340.458 613.34 339.035C614.157 337.612 615.253 336.492 616.63 335.675C618.007 334.858 619.547 334.45 621.25 334.45C622.953 334.45 624.482 334.858 625.835 335.675C627.212 336.492 628.297 337.612 629.09 339.035C629.907 340.458 630.315 342.08 630.315 343.9ZM627.515 343.9C627.515 342.547 627.235 341.357 626.675 340.33C626.138 339.303 625.392 338.498 624.435 337.915C623.502 337.332 622.44 337.04 621.25 337.04C620.06 337.04 618.987 337.332 618.03 337.915C617.097 338.498 616.35 339.303 615.79 340.33C615.23 341.357 614.95 342.547 614.95 343.9C614.95 345.23 615.23 346.408 615.79 347.435C616.35 348.462 617.097 349.278 618.03 349.885C618.987 350.468 620.06 350.76 621.25 350.76C622.44 350.76 623.502 350.468 624.435 349.885C625.392 349.278 626.138 348.462 626.675 347.435C627.235 346.408 627.515 345.23 627.515 343.9ZM648.072 334.905C648.492 334.905 648.83 335.045 649.087 335.325C649.343 335.582 649.472 335.908 649.472 336.305V345.86C649.472 348.217 648.807 350.048 647.477 351.355C646.17 352.638 644.338 353.28 641.982 353.28C639.648 353.28 637.817 352.638 636.487 351.355C635.18 350.048 634.527 348.217 634.527 345.86V336.305C634.527 335.908 634.655 335.582 634.912 335.325C635.192 335.045 635.53 334.905 635.927 334.905C636.347 334.905 636.685 335.045 636.942 335.325C637.198 335.582 637.327 335.908 637.327 336.305V345.86C637.327 347.447 637.735 348.648 638.552 349.465C639.368 350.282 640.512 350.69 641.982 350.69C643.498 350.69 644.653 350.282 645.447 349.465C646.263 348.648 646.672 347.447 646.672 345.86V336.305C646.672 335.908 646.8 335.582 647.057 335.325C647.337 335.045 647.675 334.905 648.072 334.905ZM656.058 353C655.662 353 655.323 352.86 655.043 352.58C654.787 352.3 654.658 351.962 654.658 351.565V336.305C654.658 335.908 654.787 335.582 655.043 335.325C655.323 335.045 655.662 334.905 656.058 334.905C656.478 334.905 656.817 335.045 657.073 335.325C657.33 335.582 657.458 335.908 657.458 336.305V340.925L657.038 340.19C657.178 339.467 657.423 338.767 657.773 338.09C658.147 337.39 658.613 336.772 659.173 336.235C659.733 335.675 660.375 335.243 661.098 334.94C661.822 334.613 662.615 334.45 663.478 334.45C663.992 334.45 664.458 334.578 664.878 334.835C665.322 335.068 665.543 335.407 665.543 335.85C665.543 336.34 665.415 336.702 665.158 336.935C664.902 337.168 664.61 337.285 664.283 337.285C663.98 337.285 663.688 337.227 663.408 337.11C663.128 336.97 662.778 336.9 662.358 336.9C661.775 336.9 661.192 337.063 660.608 337.39C660.048 337.693 659.523 338.137 659.033 338.72C658.567 339.303 658.182 339.968 657.878 340.715C657.598 341.438 657.458 342.22 657.458 343.06V351.565C657.458 351.962 657.318 352.3 657.038 352.58C656.782 352.86 656.455 353 656.058 353ZM687.34 334.45C688.927 334.45 690.175 334.777 691.085 335.43C691.995 336.083 692.637 336.958 693.01 338.055C693.407 339.152 693.605 340.377 693.605 341.73V351.565C693.605 351.962 693.465 352.3 693.185 352.58C692.928 352.86 692.602 353 692.205 353C691.808 353 691.47 352.86 691.19 352.58C690.933 352.3 690.805 351.962 690.805 351.565V341.8C690.805 340.913 690.665 340.12 690.385 339.42C690.128 338.697 689.685 338.125 689.055 337.705C688.448 337.262 687.608 337.04 686.535 337.04C685.555 337.04 684.657 337.262 683.84 337.705C683.023 338.125 682.37 338.697 681.88 339.42C681.39 340.12 681.145 340.913 681.145 341.8V351.565C681.145 351.962 681.005 352.3 680.725 352.58C680.468 352.86 680.142 353 679.745 353C679.348 353 679.01 352.86 678.73 352.58C678.473 352.3 678.345 351.962 678.345 351.565V336.305C678.345 335.908 678.473 335.582 678.73 335.325C679.01 335.045 679.348 334.905 679.745 334.905C680.165 334.905 680.503 335.045 680.76 335.325C681.017 335.582 681.145 335.908 681.145 336.305V338.79L680.445 339.56C680.562 338.953 680.83 338.347 681.25 337.74C681.67 337.11 682.195 336.55 682.825 336.06C683.455 335.57 684.155 335.185 684.925 334.905C685.695 334.602 686.5 334.45 687.34 334.45ZM707.149 353.35C705.283 353.35 703.649 352.953 702.249 352.16C700.849 351.367 699.753 350.282 698.959 348.905C698.189 347.505 697.804 345.895 697.804 344.075C697.804 342.045 698.201 340.318 698.994 338.895C699.811 337.448 700.861 336.352 702.144 335.605C703.451 334.835 704.828 334.45 706.274 334.45C707.348 334.45 708.386 334.648 709.389 335.045C710.393 335.442 711.279 336.025 712.049 336.795C712.819 337.542 713.438 338.452 713.904 339.525C714.371 340.575 714.616 341.753 714.639 343.06C714.639 343.433 714.499 343.748 714.219 344.005C713.939 344.262 713.613 344.39 713.239 344.39H699.414L698.784 341.975H712.259L711.699 342.465V341.695C711.606 340.738 711.279 339.922 710.719 339.245C710.183 338.545 709.518 338.008 708.724 337.635C707.954 337.262 707.138 337.075 706.274 337.075C705.574 337.075 704.874 337.203 704.174 337.46C703.498 337.693 702.879 338.09 702.319 338.65C701.783 339.187 701.339 339.887 700.989 340.75C700.663 341.613 700.499 342.652 700.499 343.865C700.499 345.218 700.768 346.408 701.304 347.435C701.864 348.462 702.634 349.278 703.614 349.885C704.594 350.468 705.738 350.76 707.044 350.76C707.861 350.76 708.573 350.655 709.179 350.445C709.786 350.235 710.311 349.978 710.754 349.675C711.198 349.348 711.571 349.022 711.874 348.695C712.178 348.485 712.469 348.38 712.749 348.38C713.099 348.38 713.379 348.497 713.589 348.73C713.823 348.963 713.939 349.243 713.939 349.57C713.939 349.967 713.753 350.317 713.379 350.62C712.726 351.343 711.839 351.985 710.719 352.545C709.599 353.082 708.409 353.35 707.149 353.35ZM718.502 334.695C718.945 334.695 719.319 334.893 719.622 335.29L731.802 350.83C731.989 351.087 732.082 351.367 732.082 351.67C732.082 352.067 731.942 352.405 731.662 352.685C731.382 352.965 731.055 353.105 730.682 353.105C730.239 353.105 729.854 352.895 729.527 352.475L717.347 336.97C717.16 336.713 717.067 336.433 717.067 336.13C717.067 335.71 717.207 335.372 717.487 335.115C717.79 334.835 718.129 334.695 718.502 334.695ZM718.502 353.07C718.199 353.07 717.895 352.953 717.592 352.72C717.289 352.487 717.137 352.183 717.137 351.81C717.137 351.507 717.254 351.215 717.487 350.935L723.227 343.69L724.697 346L719.622 352.51C719.342 352.883 718.969 353.07 718.502 353.07ZM730.682 334.695C731.079 334.695 731.394 334.823 731.627 335.08C731.884 335.337 732.012 335.628 732.012 335.955C732.012 336.095 731.977 336.247 731.907 336.41C731.86 336.573 731.779 336.725 731.662 336.865L725.957 344.18L724.487 342.045L729.527 335.325C729.854 334.905 730.239 334.695 730.682 334.695ZM736.707 335.01H744.932C745.306 335.01 745.609 335.138 745.842 335.395C746.099 335.652 746.227 335.955 746.227 336.305C746.227 336.678 746.099 336.993 745.842 337.25C745.609 337.483 745.306 337.6 744.932 337.6H736.707C736.357 337.6 736.054 337.472 735.797 337.215C735.541 336.958 735.412 336.643 735.412 336.27C735.412 335.92 735.541 335.628 735.797 335.395C736.054 335.138 736.357 335.01 736.707 335.01ZM740.382 330.25C740.779 330.25 741.106 330.39 741.362 330.67C741.619 330.927 741.747 331.253 741.747 331.65V348.555C741.747 349.115 741.829 349.535 741.992 349.815C742.156 350.095 742.366 350.293 742.622 350.41C742.902 350.503 743.171 350.55 743.427 350.55C743.661 350.55 743.859 350.515 744.022 350.445C744.209 350.352 744.419 350.305 744.652 350.305C744.886 350.305 745.096 350.422 745.282 350.655C745.492 350.865 745.597 351.145 745.597 351.495C745.597 351.915 745.352 352.277 744.862 352.58C744.372 352.86 743.824 353 743.217 353C742.891 353 742.482 352.977 741.992 352.93C741.526 352.883 741.059 352.732 740.592 352.475C740.126 352.218 739.729 351.798 739.402 351.215C739.099 350.608 738.947 349.768 738.947 348.695V331.65C738.947 331.253 739.087 330.927 739.367 330.67C739.647 330.39 739.986 330.25 740.382 330.25ZM761.161 353C760.764 353 760.426 352.86 760.146 352.58C759.889 352.3 759.761 351.962 759.761 351.565V336.305C759.761 335.908 759.889 335.582 760.146 335.325C760.426 335.045 760.764 334.905 761.161 334.905C761.581 334.905 761.919 335.045 762.176 335.325C762.433 335.582 762.561 335.908 762.561 336.305V340.925L762.141 340.19C762.281 339.467 762.526 338.767 762.876 338.09C763.249 337.39 763.716 336.772 764.276 336.235C764.836 335.675 765.478 335.243 766.201 334.94C766.924 334.613 767.718 334.45 768.581 334.45C769.094 334.45 769.561 334.578 769.981 334.835C770.424 335.068 770.646 335.407 770.646 335.85C770.646 336.34 770.518 336.702 770.261 336.935C770.004 337.168 769.713 337.285 769.386 337.285C769.083 337.285 768.791 337.227 768.511 337.11C768.231 336.97 767.881 336.9 767.461 336.9C766.878 336.9 766.294 337.063 765.711 337.39C765.151 337.693 764.626 338.137 764.136 338.72C763.669 339.303 763.284 339.968 762.981 340.715C762.701 341.438 762.561 342.22 762.561 343.06V351.565C762.561 351.962 762.421 352.3 762.141 352.58C761.884 352.86 761.558 353 761.161 353ZM781.388 353.35C779.521 353.35 777.888 352.953 776.488 352.16C775.088 351.367 773.991 350.282 773.198 348.905C772.428 347.505 772.043 345.895 772.043 344.075C772.043 342.045 772.439 340.318 773.233 338.895C774.049 337.448 775.099 336.352 776.383 335.605C777.689 334.835 779.066 334.45 780.513 334.45C781.586 334.45 782.624 334.648 783.628 335.045C784.631 335.442 785.518 336.025 786.288 336.795C787.058 337.542 787.676 338.452 788.143 339.525C788.609 340.575 788.854 341.753 788.878 343.06C788.878 343.433 788.738 343.748 788.458 344.005C788.178 344.262 787.851 344.39 787.478 344.39H773.653L773.023 341.975H786.498L785.938 342.465V341.695C785.844 340.738 785.518 339.922 784.958 339.245C784.421 338.545 783.756 338.008 782.963 337.635C782.193 337.262 781.376 337.075 780.513 337.075C779.813 337.075 779.113 337.203 778.413 337.46C777.736 337.693 777.118 338.09 776.558 338.65C776.021 339.187 775.578 339.887 775.228 340.75C774.901 341.613 774.738 342.652 774.738 343.865C774.738 345.218 775.006 346.408 775.543 347.435C776.103 348.462 776.873 349.278 777.853 349.885C778.833 350.468 779.976 350.76 781.283 350.76C782.099 350.76 782.811 350.655 783.418 350.445C784.024 350.235 784.549 349.978 784.993 349.675C785.436 349.348 785.809 349.022 786.113 348.695C786.416 348.485 786.708 348.38 786.988 348.38C787.338 348.38 787.618 348.497 787.828 348.73C788.061 348.963 788.178 349.243 788.178 349.57C788.178 349.967 787.991 350.317 787.618 350.62C786.964 351.343 786.078 351.985 784.958 352.545C783.838 353.082 782.648 353.35 781.388 353.35ZM808.133 334.73C808.529 334.73 808.856 334.87 809.113 335.15C809.393 335.407 809.533 335.733 809.533 336.13V351.565C809.533 351.962 809.393 352.3 809.113 352.58C808.856 352.86 808.529 353 808.133 353C807.713 353 807.374 352.86 807.118 352.58C806.861 352.3 806.733 351.962 806.733 351.565V348.24L807.398 348.17C807.398 348.683 807.223 349.243 806.873 349.85C806.523 350.457 806.044 351.028 805.438 351.565C804.831 352.078 804.108 352.51 803.268 352.86C802.451 353.187 801.564 353.35 800.608 353.35C799.021 353.35 797.598 352.942 796.338 352.125C795.078 351.285 794.074 350.153 793.328 348.73C792.604 347.307 792.243 345.685 792.243 343.865C792.243 342.022 792.604 340.4 793.328 339C794.074 337.577 795.078 336.468 796.338 335.675C797.598 334.858 798.998 334.45 800.538 334.45C801.541 334.45 802.474 334.613 803.338 334.94C804.201 335.267 804.948 335.71 805.578 336.27C806.231 336.83 806.733 337.448 807.083 338.125C807.456 338.802 807.643 339.478 807.643 340.155L806.733 339.945V336.13C806.733 335.733 806.861 335.407 807.118 335.15C807.374 334.87 807.713 334.73 808.133 334.73ZM800.923 350.76C802.089 350.76 803.116 350.457 804.003 349.85C804.913 349.243 805.613 348.427 806.103 347.4C806.616 346.35 806.873 345.172 806.873 343.865C806.873 342.582 806.616 341.427 806.103 340.4C805.613 339.35 804.913 338.533 804.003 337.95C803.116 337.343 802.089 337.04 800.923 337.04C799.779 337.04 798.753 337.332 797.843 337.915C796.956 338.498 796.256 339.303 795.743 340.33C795.229 341.357 794.973 342.535 794.973 343.865C794.973 345.172 795.218 346.35 795.708 347.4C796.221 348.427 796.921 349.243 797.808 349.85C798.718 350.457 799.756 350.76 800.923 350.76ZM829.632 327.1C830.029 327.1 830.355 327.24 830.612 327.52C830.892 327.777 831.032 328.103 831.032 328.5V351.565C831.032 351.962 830.892 352.3 830.612 352.58C830.355 352.86 830.029 353 829.632 353C829.212 353 828.874 352.86 828.617 352.58C828.36 352.3 828.232 351.962 828.232 351.565V348.24L828.897 347.995C828.897 348.555 828.722 349.15 828.372 349.78C828.022 350.387 827.544 350.958 826.937 351.495C826.33 352.032 825.607 352.475 824.767 352.825C823.95 353.175 823.064 353.35 822.107 353.35C820.544 353.35 819.12 352.942 817.837 352.125C816.577 351.308 815.574 350.188 814.827 348.765C814.104 347.342 813.742 345.72 813.742 343.9C813.742 342.057 814.104 340.423 814.827 339C815.574 337.577 816.577 336.468 817.837 335.675C819.097 334.858 820.497 334.45 822.037 334.45C823.017 334.45 823.939 334.613 824.802 334.94C825.665 335.267 826.412 335.71 827.042 336.27C827.695 336.83 828.209 337.448 828.582 338.125C828.955 338.802 829.142 339.478 829.142 340.155L828.232 339.945V328.5C828.232 328.103 828.36 327.777 828.617 327.52C828.874 327.24 829.212 327.1 829.632 327.1ZM822.422 350.76C823.589 350.76 824.615 350.468 825.502 349.885C826.412 349.278 827.112 348.462 827.602 347.435C828.115 346.385 828.372 345.207 828.372 343.9C828.372 342.57 828.115 341.392 827.602 340.365C827.112 339.338 826.412 338.533 825.502 337.95C824.615 337.343 823.589 337.04 822.422 337.04C821.279 337.04 820.252 337.343 819.342 337.95C818.455 338.533 817.755 339.338 817.242 340.365C816.729 341.392 816.472 342.57 816.472 343.9C816.472 345.183 816.729 346.35 817.242 347.4C817.755 348.427 818.455 349.243 819.342 349.85C820.252 350.457 821.279 350.76 822.422 350.76ZM837.061 352.965C836.571 352.965 836.186 352.825 835.906 352.545C835.649 352.265 835.521 351.88 835.521 351.39V350.69C835.521 350.177 835.649 349.78 835.906 349.5C836.186 349.22 836.571 349.08 837.061 349.08H837.341C837.854 349.08 838.239 349.22 838.496 349.5C838.753 349.78 838.881 350.177 838.881 350.69V351.39C838.881 351.88 838.753 352.265 838.496 352.545C838.239 352.825 837.854 352.965 837.341 352.965H837.061Z" fill="white"/>
</svg>
